<svg width="32" height="32" viewBox="0 0 32 32" fill="none" xmlns="http://www.w3.org/2000/svg">
<g id="Education">
<g id="Group">
<g id="Group_2">
<g id="Layer_5_59_">
<g id="Group_3">
<path id="Vector" d="M18.0538 22.1842C17.4843 22.5335 16.7549 22.7259 16 22.7259C15.2451 22.7259 14.5157 22.5335 13.9461 22.1842L4.64763 16.4813C4.64763 16.4813 3.80835 15.9669 3.80835 17.1323C3.80835 18.4557 3.80835 22.4259 3.80835 22.4259C3.80835 22.4788 3.80835 22.7446 3.80835 22.8269C3.80835 25.8268 9.26664 29.0608 15.9997 29.0608C22.7328 29.0608 28.1911 25.8269 28.1911 22.8269C28.1911 22.7446 28.1911 22.4788 28.1911 22.4259C28.1911 22.4259 28.1911 18.2149 28.1911 16.8112C28.1911 15.8758 27.5945 16.3329 27.5945 16.3329L18.0538 22.1842Z" fill="url(#paint0_linear_329_3110)"/>
<path id="Vector_2" d="M31.4641 11.945C32.1786 11.5068 32.1786 10.7898 31.4641 10.3515L17.299 3.26808C16.5845 2.82991 15.4154 2.82991 14.7009 3.26808L0.53586 10.3515C-0.17862 10.7897 -0.17862 11.5067 0.53586 11.945L14.7009 20.6326C15.4154 21.0707 16.5845 21.0707 17.299 20.6326" fill="url(#paint1_linear_329_3110)"/>
<path id="Vector_3" d="M30.8784 24.8221C30.8784 22.4234 30.8784 15.2274 30.8784 15.2274C30.8784 15.2274 30.885 14.7729 30.6154 14.923C30.3991 15.0434 29.8688 15.3389 29.682 15.5014C29.4663 15.6889 29.5149 16.1096 29.5149 16.1096C29.5149 16.1096 29.5149 22.644 29.5149 24.8221C29.5149 24.9457 29.4087 25.0048 29.358 25.0346C28.8683 25.3225 28.5391 25.8538 28.5391 26.463C28.5391 27.3785 29.2811 28.1206 30.1967 28.1206C31.1122 28.1206 31.8542 27.3785 31.8542 26.463C31.8542 25.8515 31.5226 25.3185 31.0298 25.0313C30.9808 25.0028 30.8784 24.9457 30.8784 24.8221Z" fill="url(#paint2_linear_329_3110)"/>
</g>
</g>
</g>
</g>
</g>
<defs>
<linearGradient id="paint0_linear_329_3110" x1="5.7747" y1="29.0608" x2="15.6061" y2="10.7183" gradientUnits="userSpaceOnUse">
<stop stop-color="#00715D"/>
<stop offset="1" stop-color="#338D7D"/>
</linearGradient>
<linearGradient id="paint1_linear_329_3110" x1="2.58065" y1="20.9612" x2="16.88" y2="-3.98383" gradientUnits="userSpaceOnUse">
<stop stop-color="#00715D"/>
<stop offset="1" stop-color="#338D7D"/>
</linearGradient>
<linearGradient id="paint2_linear_329_3110" x1="28.8064" y1="28.1206" x2="34.4537" y2="26.7302" gradientUnits="userSpaceOnUse">
<stop stop-color="#00715D"/>
<stop offset="1" stop-color="#338D7D"/>
</linearGradient>
</defs>
</svg>
