<svg width="32" height="32" viewBox="0 0 32 32" fill="none" xmlns="http://www.w3.org/2000/svg">
<path d="M0 19.375V31.0625C0 31.5802 0.41975 32 0.9375 32H31.0625C31.5802 32 32 31.5802 32 31.0625V19.375H0ZM28.25 27.3125C28.25 27.8302 27.8302 28.25 27.3125 28.25H4.6875C4.16975 28.25 3.75 27.8302 3.75 27.3125V22.1875C3.75 21.6697 4.16975 21.25 4.6875 21.25H27.3125C27.8302 21.25 28.25 21.6697 28.25 22.1875V27.3125Z" fill="url(#paint0_linear_357_17214)"/>
<path d="M5.625 23.125H26.375V26.375H5.625V23.125Z" fill="#99C6BE"/>
<path d="M17.2005 8.57005C17.2416 8.32574 17.2584 7.74355 16.582 7.45874V9.4663C16.9336 9.26493 17.1436 8.9088 17.2005 8.57005Z" fill="url(#paint1_linear_357_17214)"/>
<path d="M15.3321 4.24414C15.1413 4.39039 15.0362 4.61183 15 4.80389C14.9501 5.06883 15.0133 5.31495 15.1611 5.43083C15.2132 5.47164 15.2706 5.51177 15.3321 5.5512V4.24414Z" fill="url(#paint2_linear_357_17214)"/>
<path d="M16 13.75C19.7969 13.75 22.875 10.6719 22.875 6.875C22.875 3.07806 19.7969 0 16 0C12.2031 0 9.125 3.07806 9.125 6.875C9.125 10.6719 12.2031 13.75 16 13.75ZM13.6351 9.42931C13.8241 9.1405 14.2114 9.05956 14.5002 9.24844C14.8378 9.46925 15.0494 9.56519 15.3319 9.60487V6.96525C14.9326 6.78231 14.6343 6.60625 14.3894 6.41419C13.8708 6.00744 13.634 5.30162 13.7714 4.57219C13.9212 3.77731 14.4745 3.14494 15.2153 2.92175C15.2546 2.90994 15.2934 2.89913 15.3319 2.88888V2.5C15.3319 2.15488 15.6117 1.875 15.9569 1.875C16.302 1.875 16.5819 2.15488 16.5819 2.5V2.82044C17.1886 2.9255 17.6176 3.22419 17.8253 3.46269C18.0521 3.72294 18.0248 4.11775 17.7646 4.34444C17.5057 4.56994 17.1138 4.54431 16.8864 4.28788C16.8722 4.27344 16.7728 4.17781 16.5819 4.10744V6.12694C16.6928 6.16812 16.8037 6.20806 16.9125 6.24656C18.0111 6.63494 18.6222 7.65194 18.4331 8.77725C18.286 9.65194 17.6204 10.539 16.5819 10.8024V11.25C16.5819 11.5951 16.302 11.875 15.9569 11.875C15.6117 11.875 15.3319 11.5951 15.3319 11.25V10.8624C14.8273 10.8188 14.4089 10.6824 13.816 10.2945C13.5271 10.1055 13.4461 9.71819 13.6351 9.42931Z" fill="url(#paint3_linear_357_17214)"/>
<path d="M29.4518 10.6411C29.3242 10.2583 28.9659 10 28.5624 10H24.1725C23.6021 11.4868 22.6375 12.7799 21.4067 13.75H24.1249C24.6427 13.75 25.0624 14.1698 25.0624 14.6875C25.0624 15.2052 24.6427 15.625 24.1249 15.625H7.87491C7.35716 15.625 6.93741 15.2052 6.93741 14.6875C6.93741 14.1698 7.35716 13.75 7.87491 13.75H10.5932C9.36234 12.7799 8.39772 11.4868 7.82728 10H3.43741C3.03384 10 2.67566 10.2583 2.54803 10.6411L0.261719 17.5H31.7382L29.4518 10.6411Z" fill="url(#paint4_linear_357_17214)"/>
<defs>
<linearGradient id="paint0_linear_357_17214" x1="2.58065" y1="32" x2="10.6094" y2="12.0068" gradientUnits="userSpaceOnUse">
<stop stop-color="#00715D"/>
<stop offset="1" stop-color="#338D7D"/>
</linearGradient>
<linearGradient id="paint1_linear_357_17214" x1="16.6332" y1="9.4663" x2="17.6794" y2="9.1412" gradientUnits="userSpaceOnUse">
<stop stop-color="#00715D"/>
<stop offset="1" stop-color="#338D7D"/>
</linearGradient>
<linearGradient id="paint2_linear_357_17214" x1="15.0113" y1="5.5512" x2="15.6011" y2="5.39652" gradientUnits="userSpaceOnUse">
<stop stop-color="#00715D"/>
<stop offset="1" stop-color="#338D7D"/>
</linearGradient>
<linearGradient id="paint3_linear_357_17214" x1="10.2339" y1="13.75" x2="22.875" y2="1.33064" gradientUnits="userSpaceOnUse">
<stop stop-color="#00715D"/>
<stop offset="1" stop-color="#338D7D"/>
</linearGradient>
<linearGradient id="paint4_linear_357_17214" x1="2.80014" y1="17.5" x2="5.95938" y2="4.47372" gradientUnits="userSpaceOnUse">
<stop stop-color="#00715D"/>
<stop offset="1" stop-color="#338D7D"/>
</linearGradient>
</defs>
</svg>
