<svg width="24" height="24" viewBox="0 0 24 24" fill="none" xmlns="http://www.w3.org/2000/svg">
<path d="M0 1.75919C0 0.814044 0.79126 0.046875 1.76665 0.046875H22.1373C23.1131 0.046875 23.904 0.814044 23.904 1.75919V22.2388C23.904 23.1843 23.1131 23.9509 22.1373 23.9509H1.76665C0.791353 23.9509 0 23.1844 0 22.2391V1.75891V1.75919Z" fill="#006699"/>
<path d="M7.26441 20.0509V9.28929H3.6874V20.0509H7.26479H7.26441ZM5.47666 7.82022C6.72377 7.82022 7.50018 6.99385 7.50018 5.96113C7.47684 4.90487 6.72377 4.10156 5.50037 4.10156C4.27613 4.10156 3.47656 4.90487 3.47656 5.96103C3.47656 6.99376 4.2527 7.82013 5.45322 7.82013H5.47637L5.47666 7.82022ZM9.24434 20.0509H12.8211V14.0418C12.8211 13.7206 12.8444 13.3985 12.9389 13.1691C13.1974 12.5262 13.7859 11.8607 14.7743 11.8607C16.0683 11.8607 16.5862 12.8475 16.5862 14.2944V20.0509H20.1629V13.8805C20.1629 10.5752 18.3984 9.03699 16.0451 9.03699C14.1157 9.03699 13.2683 10.1154 12.7975 10.8499H12.8213V9.28966H9.24452C9.29121 10.2992 9.24424 20.0513 9.24424 20.0513L9.24434 20.0509Z" fill="white"/>
</svg>
