<svg width="18" height="18" viewBox="0 0 18 18" fill="none" xmlns="http://www.w3.org/2000/svg">
<path d="M7.05575 4.89242C8.12917 3.95283 9.87083 3.95283 10.9443 4.89242C12.0186 5.832 12.0186 7.3555 10.9443 8.29508C10.7582 8.45917 10.5501 8.59392 10.3301 8.70025C9.64717 9.03117 9.00092 9.616 9.00092 10.375V11.0625M17.25 9C17.25 10.0834 17.0366 11.1562 16.622 12.1571C16.2074 13.1581 15.5997 14.0675 14.8336 14.8336C14.0675 15.5997 13.1581 16.2074 12.1571 16.622C11.1562 17.0366 10.0834 17.25 9 17.25C7.91659 17.25 6.8438 17.0366 5.84286 16.622C4.84193 16.2074 3.93245 15.5997 3.16637 14.8336C2.40029 14.0675 1.7926 13.1581 1.37799 12.1571C0.963392 11.1562 0.75 10.0834 0.75 9C0.75 6.81196 1.61919 4.71354 3.16637 3.16637C4.71354 1.61919 6.81196 0.75 9 0.75C11.188 0.75 13.2865 1.61919 14.8336 3.16637C16.3808 4.71354 17.25 6.81196 17.25 9ZM9 13.8125H9.00733V13.8198H9V13.8125Z" stroke="#667085" stroke-width="1.5" stroke-linecap="round" stroke-linejoin="round"/>
</svg>
