<svg width="8" height="8" viewBox="0 0 8 8" fill="none" xmlns="http://www.w3.org/2000/svg">
<g clip-path="url(#clip0_388_28727)">
<path d="M4.23503 0H3.76628C3.63673 0 3.5319 0.104828 3.5319 0.234375V1.1875H2.92583C2.83108 1.1875 2.74547 1.24448 2.70931 1.33216C2.67292 1.41981 2.69306 1.52053 2.76012 1.58759L3.83495 2.66242C3.88073 2.7082 3.9407 2.73109 4.00065 2.73109C4.06062 2.73109 4.12059 2.7082 4.16636 2.66242L5.24118 1.58759C5.30825 1.52053 5.32839 1.41983 5.292 1.33216C5.25584 1.2445 5.17023 1.1875 5.07548 1.1875H4.4694V0.234375C4.4694 0.104828 4.36458 0 4.23503 0V0Z" fill="#00715D"/>
<path d="M7.96056 3.84081L7.19333 3.18774L4.36523 4.12528L4.93392 4.97835C4.99255 5.06628 5.10278 5.10409 5.20306 5.07068L7.83967 4.19315C7.9863 4.14428 8.04631 3.96937 7.96056 3.84081Z" fill="#00715D"/>
<path d="M0.0394886 3.84081C-0.0462614 3.96938 0.0137698 4.14428 0.160395 4.19313L2.797 5.07067C2.89729 5.10409 3.00752 5.06626 3.06614 4.97834L3.63483 4.12526L0.806739 3.18774L0.0394886 3.84081Z" fill="#00715D"/>
<path d="M7.0625 6.82813V4.94775L5.35178 5.5152C5.04631 5.61669 4.71823 5.49999 4.54383 5.23825L4.23444 4.77405L4.23438 8L6.90231 7.05034C6.99798 7.01847 7.0625 6.92895 7.0625 6.82813Z" fill="#00715D"/>
<path d="M3.45619 5.23822C3.28289 5.49831 2.95552 5.61702 2.64869 5.51539L0.9375 4.94766V6.8281C0.9375 6.92892 1.00202 7.01844 1.09769 7.05031L3.76562 7.99997V4.77405L3.45619 5.23822Z" fill="#00715D"/>
<path d="M3.99994 3.75302L6.828 2.81548L5.20963 2.28125L4.49706 2.99381C4.36431 3.12656 4.18761 3.19981 3.99994 3.19981C3.81225 3.19981 3.63556 3.12656 3.50281 2.99381L2.79025 2.28125L1.17188 2.81548L3.99994 3.75302Z" fill="#00715D"/>
</g>
<defs>
<clipPath id="clip0_388_28727">
<rect width="8" height="8" fill="white"/>
</clipPath>
</defs>
</svg>
