<svg width="62" height="62" viewBox="0 0 62 62" fill="none" xmlns="http://www.w3.org/2000/svg">
<g id="Frame">
<g id="Group">
<g id="Group_2">
<path id="Vector" d="M33.5827 8.17188C33.5827 6.76888 32.4253 5.63021 30.9993 5.63021C29.5733 5.63021 28.416 6.76888 28.416 8.17188V13.2552H33.5827V8.17188Z" fill="#CCE3DF"/>
<path id="Vector_2" d="M15.7713 52.7858C15.6008 53.1162 15.5 53.5076 15.5 53.9219C15.5 55.3274 16.6573 56.4635 18.0833 56.4635C19.0908 56.4635 19.9614 55.8968 20.3877 55.0707L20.3954 55.0555L25.5621 44.8888C25.7171 44.5762 25.8075 44.2051 25.8075 43.8162C25.8075 43.7933 25.8075 43.7705 25.8075 43.7501V43.7527H20.3618L15.7713 52.7858Z" fill="#CCE3DF"/>
<path id="Vector_3" d="M41.639 43.7552H36.1934V43.7933C36.1934 44.1924 36.2889 44.5711 36.4594 44.9066L36.4517 44.8913L41.6184 55.058C42.0524 55.8993 42.9229 56.4635 43.9304 56.4635C45.359 56.4635 46.5138 55.3249 46.5138 53.9219C46.5138 53.5076 46.413 53.1162 46.2348 52.7705L46.2425 52.7858L41.639 43.7552Z" fill="#CCE3DF"/>
<path id="Vector_4" d="M28.416 51.3802C28.416 52.7832 29.5733 53.9219 30.9993 53.9219C32.4253 53.9219 33.5827 52.7832 33.5827 51.3802V43.7552H28.416V51.3802Z" fill="#CCE3DF"/>
</g>
<path id="Vector_5" d="M54.25 41.2135V15.7969C54.25 14.3939 53.0927 13.2552 51.6667 13.2552H10.3333C8.90733 13.2552 7.75 14.3939 7.75 15.7969V41.2135C7.75 42.6165 8.90733 43.7552 10.3333 43.7552H51.6667C53.0927 43.7552 54.25 42.6165 54.25 41.2135ZM23.25 33.5885C23.25 34.9915 22.0927 36.1302 20.6667 36.1302C19.2407 36.1302 18.0833 34.9915 18.0833 33.5885V28.5052C18.0833 27.1022 19.2407 25.9635 20.6667 25.9635C22.0927 25.9635 23.25 27.1022 23.25 28.5052V33.5885ZM33.5833 33.5885C33.5833 34.9915 32.426 36.1302 31 36.1302C29.574 36.1302 28.4167 34.9915 28.4167 33.5885V25.9635C28.4167 24.5605 29.574 23.4219 31 23.4219C32.426 23.4219 33.5833 24.5605 33.5833 25.9635V33.5885ZM43.9167 33.5885C43.9167 34.9915 42.7593 36.1302 41.3333 36.1302C39.9073 36.1302 38.75 34.9915 38.75 33.5885V23.4219C38.75 22.0189 39.9073 20.8802 41.3333 20.8802C42.7593 20.8802 43.9167 22.0189 43.9167 23.4219V33.5885Z" fill="white"/>
</g>
</g>
</svg>
