<svg width="8" height="8" viewBox="0 0 8 8" fill="none" xmlns="http://www.w3.org/2000/svg">
<g clip-path="url(#clip0_388_28833)">
<path d="M6.24461 3.76557C6.14352 2.69995 5.29758 1.84807 4.23461 1.73792V2.04104H3.76586V1.73792C2.70289 1.84807 1.85695 2.69995 1.75586 3.76557H2.04133V4.23432H1.75992C1.87805 5.28135 2.71617 6.11354 3.76586 6.22245V5.95885H4.23461V6.22245C5.2843 6.11354 6.12242 5.28135 6.24055 4.23432H5.95914V3.76557H6.24461ZM4.23461 5.11916V5.40854H3.76586V5.11995C3.44523 5.06838 3.19961 4.78995 3.19961 4.45495H3.66836C3.66836 4.56791 3.76023 4.65979 3.87305 4.65979H4.12305C4.24039 4.65979 4.3357 4.56432 4.3357 4.44713C4.3357 4.32979 4.24039 4.23432 4.12305 4.23432H3.87742C3.50164 4.23432 3.19602 3.9287 3.19602 3.55291C3.19602 3.2151 3.44305 2.93416 3.76586 2.88073V2.59135H4.23461V2.88166C4.55492 2.93745 4.79914 3.21729 4.79914 3.55323H4.33039C4.33039 3.43573 4.23492 3.34026 4.11742 3.34026H3.87742C3.76023 3.34026 3.66477 3.43557 3.66477 3.55291C3.66477 3.67026 3.76023 3.76557 3.87742 3.76557H4.12305C4.49883 3.76557 4.80445 4.07135 4.80445 4.44713C4.80445 4.78479 4.55742 5.06573 4.23461 5.11916Z" fill="#00715D"/>
<path d="M1.28984 4.23438H0.324219C0.38 5.13047 0.755625 5.965 1.39594 6.60531C2.03641 7.24578 2.87094 7.62141 3.76703 7.67719V6.69344C2.45859 6.58141 1.41141 5.54016 1.28984 4.23438Z" fill="#00715D"/>
<path d="M3.76703 1.26697V0.322754C2.87094 0.378535 2.03641 0.75416 1.39594 1.39463C0.755625 2.03494 0.38 2.86947 0.324219 3.76557H1.28656C1.39016 2.44135 2.44547 1.3801 3.76703 1.26697Z" fill="#00715D"/>
<path d="M6.71484 3.76557H7.67719C7.62141 2.86947 7.24578 2.03494 6.60547 1.39463C5.965 0.75416 5.13047 0.378535 4.23438 0.322754V1.26697C5.55594 1.3801 6.61125 2.44135 6.71484 3.76557Z" fill="#00715D"/>
<path d="M4.23438 6.69344V7.67719C5.13047 7.62141 5.965 7.24578 6.60547 6.60531C7.24578 5.965 7.62141 5.13047 7.67719 4.23438H6.71156C6.59 5.54016 5.54281 6.58141 4.23438 6.69344Z" fill="#00715D"/>
<path d="M4.23438 0.322812V0H3.76562V0.322812C3.84328 0.317969 3.92141 0.315469 4 0.315469C4.07859 0.315469 4.15672 0.317969 4.23438 0.322812Z" fill="#00715D"/>
<path d="M3.76562 7.67725V8.00006H4.23438V7.67725C4.15672 7.68209 4.07859 7.68459 4 7.68459C3.92141 7.68459 3.84328 7.68209 3.76562 7.67725Z" fill="#00715D"/>
<path d="M7.67578 3.76562C7.68063 3.84328 7.68313 3.92141 7.68313 4C7.68313 4.07859 7.68063 4.15672 7.67578 4.23438H7.99859V3.76562H7.67578Z" fill="#00715D"/>
<path d="M0.322812 3.76562H0V4.23438H0.322812C0.317969 4.15672 0.315469 4.07859 0.315469 4C0.315469 3.92141 0.317969 3.84328 0.322812 3.76562Z" fill="#00715D"/>
</g>
<defs>
<clipPath id="clip0_388_28833">
<rect width="8" height="8" fill="white"/>
</clipPath>
</defs>
</svg>
