<svg width="46" height="47" viewBox="0 0 46 47" fill="none" xmlns="http://www.w3.org/2000/svg">
<g id="Frame" clip-path="url(#clip0_388_28286)">
<g id="Group">
<g id="Group_2">
<path id="Vector" d="M2.69531 44.6992C2.69531 45.4435 3.2987 46.0469 4.04297 46.0469H41.957C42.7013 46.0469 43.3047 45.4435 43.3047 44.6992V37.7812H2.69531V44.6992Z" fill="white"/>
<path id="Vector_2" d="M0 29.6953V33.7383C0 34.4825 0.603391 35.0859 1.34766 35.0859H44.6523C45.3966 35.0859 46 34.4825 46 33.7383V29.6953H0Z" fill="#CCE3DF"/>
<path id="Vector_3" d="M24.7874 13.2647C24.8465 12.9135 24.8706 12.0767 23.8984 11.6671V14.553C24.4038 14.2635 24.7056 13.7516 24.7874 13.2647Z" fill="white"/>
<path id="Vector_4" d="M23 21.6094C28.9543 21.6094 33.7812 16.7824 33.7812 10.8281C33.7812 4.87382 28.9543 0.046875 23 0.046875C17.0457 0.046875 12.2188 4.87382 12.2188 10.8281C12.2188 16.7824 17.0457 21.6094 23 21.6094ZM19.6624 14.5C19.934 14.0847 20.4908 13.9683 20.9061 14.2399C21.3915 14.5574 21.6955 14.6954 22.1017 14.7526V10.9579C21.5277 10.6948 21.0988 10.4418 20.7469 10.1658C20.0013 9.581 19.6609 8.5664 19.8584 7.51792C20.0737 6.37529 20.8691 5.46625 21.934 5.14542C21.9904 5.12844 22.0462 5.1128 22.1017 5.09816V4.53906C22.1017 4.04286 22.5039 3.64062 23.0001 3.64062C23.4963 3.64062 23.8985 4.04286 23.8985 4.53906V4.99969C24.7707 5.15072 25.3872 5.58017 25.6859 5.92284C26.0118 6.29695 25.9728 6.86449 25.5987 7.19044C25.2265 7.51469 24.663 7.47767 24.3363 7.10922C24.3159 7.08856 24.173 6.9511 23.8985 6.84993V9.75287C24.058 9.81208 24.2173 9.86949 24.3737 9.92484C25.9531 10.4831 26.8315 11.9451 26.5595 13.5627C26.3481 14.82 25.3913 16.0952 23.8985 16.4738V17.1172C23.8985 17.6134 23.4963 18.0156 23.0001 18.0156C22.5039 18.0156 22.1017 17.6134 22.1017 17.1172V16.5599C21.3763 16.4972 20.7749 16.3013 19.9225 15.7437C19.5071 15.4721 19.3907 14.9152 19.6624 14.5Z" fill="#CCE3DF"/>
<path id="Vector_5" d="M43.2639 17.2396C43.1139 16.6396 42.5749 16.2188 41.9565 16.2188H35.3496C34.4093 18.3647 32.9245 20.2189 31.0726 21.6094H37.3364C38.0621 21.6094 38.6865 22.167 38.7206 22.8919C38.757 23.6658 38.1403 24.3047 37.3744 24.3047H8.66252C7.93685 24.3047 7.31244 23.747 7.2783 23.0222C7.24182 22.2483 7.85851 21.6094 8.62443 21.6094H14.9263C13.0745 20.2189 11.5896 18.3647 10.6493 16.2188H4.04239C3.424 16.2188 2.88494 16.6396 2.73499 17.2396L0.294922 27H45.704L43.2639 17.2396Z" fill="white"/>
<path id="Vector_6" d="M22.1012 7.04602C21.827 7.25625 21.6758 7.57457 21.6238 7.85066C21.552 8.23151 21.643 8.58531 21.8554 8.75188C21.9303 8.81055 22.0128 8.86823 22.1013 8.92492V7.04602H22.1012Z" fill="white"/>
</g>
</g>
</g>
<defs>
<clipPath id="clip0_388_28286">
<rect width="46" height="46" fill="white" transform="translate(0 0.046875)"/>
</clipPath>
</defs>
</svg>
