<svg width="54" height="181" viewBox="0 0 54 181" fill="none" xmlns="http://www.w3.org/2000/svg">
<circle cx="2.65356" cy="177.789" r="2.65356" transform="rotate(-90 2.65356 177.789)" fill="#66AA9E"/>
<circle cx="2.65356" cy="161.867" r="2.65356" transform="rotate(-90 2.65356 161.867)" fill="#66AA9E"/>
<circle cx="2.65356" cy="145.946" r="2.65356" transform="rotate(-90 2.65356 145.946)" fill="#66AA9E"/>
<circle cx="2.65356" cy="130.025" r="2.65356" transform="rotate(-90 2.65356 130.025)" fill="#66AA9E"/>
<circle cx="2.65356" cy="114.103" r="2.65356" transform="rotate(-90 2.65356 114.103)" fill="#66AA9E"/>
<circle cx="2.65356" cy="98.1818" r="2.65356" transform="rotate(-90 2.65356 98.1818)" fill="#66AA9E"/>
<circle cx="2.65356" cy="82.2604" r="2.65356" transform="rotate(-90 2.65356 82.2604)" fill="#66AA9E"/>
<circle cx="2.65356" cy="66.3391" r="2.65356" transform="rotate(-90 2.65356 66.3391)" fill="#66AA9E"/>
<circle cx="2.65356" cy="50.4177" r="2.65356" transform="rotate(-90 2.65356 50.4177)" fill="#66AA9E"/>
<circle cx="2.65356" cy="34.4963" r="2.65356" transform="rotate(-90 2.65356 34.4963)" fill="#66AA9E"/>
<circle cx="2.65356" cy="18.575" r="2.65356" transform="rotate(-90 2.65356 18.575)" fill="#66AA9E"/>
<circle cx="2.65356" cy="2.65357" r="2.65356" transform="rotate(-90 2.65356 2.65357)" fill="#66AA9E"/>
<circle cx="18.5754" cy="177.789" r="2.65356" transform="rotate(-90 18.5754 177.789)" fill="#66AA9E"/>
<circle cx="18.5754" cy="161.867" r="2.65356" transform="rotate(-90 18.5754 161.867)" fill="#66AA9E"/>
<circle cx="18.5754" cy="145.946" r="2.65356" transform="rotate(-90 18.5754 145.946)" fill="#66AA9E"/>
<circle cx="18.5754" cy="130.025" r="2.65356" transform="rotate(-90 18.5754 130.025)" fill="#66AA9E"/>
<circle cx="18.5754" cy="114.103" r="2.65356" transform="rotate(-90 18.5754 114.103)" fill="#66AA9E"/>
<circle cx="18.5754" cy="98.1818" r="2.65356" transform="rotate(-90 18.5754 98.1818)" fill="#66AA9E"/>
<circle cx="18.5754" cy="82.2604" r="2.65356" transform="rotate(-90 18.5754 82.2604)" fill="#66AA9E"/>
<circle cx="18.5754" cy="66.3391" r="2.65356" transform="rotate(-90 18.5754 66.3391)" fill="#66AA9E"/>
<circle cx="18.5754" cy="50.4177" r="2.65356" transform="rotate(-90 18.5754 50.4177)" fill="#66AA9E"/>
<circle cx="18.5754" cy="34.4963" r="2.65356" transform="rotate(-90 18.5754 34.4963)" fill="#66AA9E"/>
<circle cx="18.5754" cy="18.575" r="2.65356" transform="rotate(-90 18.5754 18.575)" fill="#66AA9E"/>
<circle cx="18.5754" cy="2.65357" r="2.65356" transform="rotate(-90 18.5754 2.65357)" fill="#66AA9E"/>
<circle cx="34.4963" cy="177.789" r="2.65356" transform="rotate(-90 34.4963 177.789)" fill="#66AA9E"/>
<circle cx="34.4963" cy="161.867" r="2.65356" transform="rotate(-90 34.4963 161.867)" fill="#66AA9E"/>
<circle cx="34.4963" cy="145.946" r="2.65356" transform="rotate(-90 34.4963 145.946)" fill="#66AA9E"/>
<circle cx="34.4963" cy="130.025" r="2.65356" transform="rotate(-90 34.4963 130.025)" fill="#66AA9E"/>
<circle cx="34.4963" cy="114.103" r="2.65356" transform="rotate(-90 34.4963 114.103)" fill="#66AA9E"/>
<circle cx="34.4963" cy="98.1818" r="2.65356" transform="rotate(-90 34.4963 98.1818)" fill="#66AA9E"/>
<circle cx="34.4963" cy="82.2604" r="2.65356" transform="rotate(-90 34.4963 82.2604)" fill="#66AA9E"/>
<circle cx="34.4963" cy="66.3391" r="2.65356" transform="rotate(-90 34.4963 66.3391)" fill="#66AA9E"/>
<circle cx="34.4963" cy="50.4177" r="2.65356" transform="rotate(-90 34.4963 50.4177)" fill="#66AA9E"/>
<circle cx="34.4963" cy="34.4963" r="2.65356" transform="rotate(-90 34.4963 34.4963)" fill="#66AA9E"/>
<circle cx="34.4963" cy="18.575" r="2.65356" transform="rotate(-90 34.4963 18.575)" fill="#66AA9E"/>
<circle cx="34.4963" cy="2.65357" r="2.65356" transform="rotate(-90 34.4963 2.65357)" fill="#66AA9E"/>
<circle cx="50.4172" cy="177.789" r="2.65356" transform="rotate(-90 50.4172 177.789)" fill="#66AA9E"/>
<circle cx="50.4172" cy="161.867" r="2.65356" transform="rotate(-90 50.4172 161.867)" fill="#66AA9E"/>
<circle cx="50.4172" cy="145.946" r="2.65356" transform="rotate(-90 50.4172 145.946)" fill="#66AA9E"/>
<circle cx="50.4172" cy="130.025" r="2.65356" transform="rotate(-90 50.4172 130.025)" fill="#66AA9E"/>
<circle cx="50.4172" cy="114.103" r="2.65356" transform="rotate(-90 50.4172 114.103)" fill="#66AA9E"/>
<circle cx="50.4172" cy="98.1818" r="2.65356" transform="rotate(-90 50.4172 98.1818)" fill="#66AA9E"/>
<circle cx="50.4172" cy="82.2604" r="2.65356" transform="rotate(-90 50.4172 82.2604)" fill="#66AA9E"/>
<circle cx="50.4172" cy="66.3391" r="2.65356" transform="rotate(-90 50.4172 66.3391)" fill="#66AA9E"/>
<circle cx="50.4172" cy="50.4177" r="2.65356" transform="rotate(-90 50.4172 50.4177)" fill="#66AA9E"/>
<circle cx="50.4172" cy="34.4963" r="2.65356" transform="rotate(-90 50.4172 34.4963)" fill="#66AA9E"/>
<circle cx="50.4172" cy="18.575" r="2.65356" transform="rotate(-90 50.4172 18.575)" fill="#66AA9E"/>
<circle cx="50.4172" cy="2.65357" r="2.65356" transform="rotate(-90 50.4172 2.65357)" fill="#66AA9E"/>
</svg>
