<svg width="51" height="20" viewBox="0 0 51 20" fill="none" xmlns="http://www.w3.org/2000/svg">
<g id="G_Pay_Lockup_1_">
<g id="Pay_Typeface_3_">
<path id="Letter_p_3_" d="M23.7893 9.72692V15.6236H21.918V1.06238H26.8789C28.1362 1.06238 29.2082 1.48152 30.0854 2.3197C30.9821 3.15788 31.4305 4.18124 31.4305 5.38977C31.4305 6.62758 30.9821 7.65094 30.0854 8.47936C29.218 9.30779 28.1459 9.71717 26.8789 9.71717H23.7893V9.72692ZM23.7893 2.85572V7.93358H26.9179C27.6586 7.93358 28.2824 7.68021 28.7697 7.18311C29.2668 6.68602 29.5201 6.0818 29.5201 5.39953C29.5201 4.72701 29.2668 4.13245 28.7697 3.63546C28.2823 3.11885 27.6683 2.86548 26.9179 2.86548H23.7893V2.85572Z" fill="white"/>
<path id="Letter_a_3_" d="M36.3244 5.33081C37.7084 5.33081 38.8001 5.70117 39.5992 6.44188C40.3985 7.18259 40.798 8.19619 40.798 9.48278V15.623H39.0144V14.2391H38.9365C38.1665 15.3794 37.1334 15.9447 35.8469 15.9447C34.7456 15.9447 33.8293 15.623 33.0886 14.97C32.3479 14.317 31.9775 13.508 31.9775 12.5334C31.9775 11.5003 32.3674 10.6817 33.1471 10.0773C33.9269 9.46337 34.9698 9.16121 36.266 9.16121C37.3771 9.16121 38.2933 9.3659 39.0048 9.77519V9.34639C39.0048 8.69339 38.7514 8.14761 38.2348 7.68954C37.7182 7.23148 37.1139 7.00727 36.4219 7.00727C35.379 7.00727 34.5506 7.44582 33.9463 8.33279L32.2991 7.29967C33.2056 5.98381 34.5506 5.33081 36.3244 5.33081ZM33.9074 12.5626C33.9074 13.05 34.1121 13.4593 34.5311 13.7809C34.9405 14.1026 35.4278 14.2682 35.9834 14.2682C36.7729 14.2682 37.4745 13.9758 38.0886 13.391C38.7027 12.8062 39.0145 12.124 39.0145 11.3346C38.4297 10.8765 37.6208 10.6425 36.5779 10.6425C35.8177 10.6425 35.1842 10.8277 34.6774 11.1883C34.1607 11.5684 33.9074 12.0266 33.9074 12.5626Z" fill="white"/>
<path id="Letter_y_3_" d="M50.9746 5.65332L44.7368 20H42.807L45.1266 14.9806L41.0137 5.65332H43.0506L46.0136 12.8072H46.0526L48.9375 5.65332H50.9746Z" fill="white"/>
</g>
<path id="Vector" d="M16.1925 6.78223H8.34863V9.99855L12.8661 9.99955C12.6829 11.0697 12.0932 11.9819 11.1897 12.5902V12.5907C11.19 12.5905 11.1904 12.5903 11.1907 12.5902L11.1094 14.5125L13.8798 14.6759C13.8794 14.6762 13.879 14.6766 13.8787 14.6769H13.8788C15.4489 13.2237 16.3485 11.0756 16.3485 8.53763C16.3484 7.92744 16.2939 7.34364 16.1925 6.78223Z" fill="#0085F7"/>
<path id="Vector_2" d="M11.1892 12.5903C11.1889 12.5905 11.1885 12.5907 11.1882 12.5909C10.4398 13.0954 9.47618 13.3904 8.34908 13.3904C6.17075 13.3904 4.32285 11.9227 3.66109 9.94414H3.66079C3.66089 9.94444 3.66099 9.94483 3.66109 9.94513L1.34825 9.57886L0.887695 12.0968C2.2621 14.8235 5.08636 16.6945 8.34918 16.6945C10.6039 16.6945 12.4982 15.9532 13.8772 14.6769C13.8776 14.6766 13.878 14.6763 13.8783 14.6759L11.1892 12.5903Z" fill="#00A94B"/>
<path id="Vector_3" d="M3.40051 8.34761C3.40051 7.79207 3.4931 7.25505 3.66175 6.75019L2.93955 4.59814H0.88786C0.319681 5.72584 0 6.99869 0 8.34761C0 9.69652 0.320677 10.9694 0.88786 12.0971L0.888258 12.0968L3.66175 9.94502C3.66165 9.94472 3.66155 9.94442 3.66145 9.94402C3.493 9.43956 3.40051 8.90284 3.40051 8.34761Z" fill="#FFBB00"/>
<path id="Vector_4" d="M8.34958 0C5.08746 0 2.262 1.8713 0.887695 4.59839L3.66149 6.75044C4.32325 4.77192 6.17115 3.30414 8.34948 3.30414C9.58042 3.30414 10.6828 3.72816 11.5532 4.55658L13.9362 2.17555C12.4889 0.827428 10.602 0 8.34958 0Z" fill="#FF4031"/>
</g>
</svg>
