<svg width="26" height="11" viewBox="0 0 26 11" fill="none" xmlns="http://www.w3.org/2000/svg">
<g id="G_Pay_Lockup_1_">
<g id="Pay_Typeface_3_">
<path id="Letter_p_3_" d="M12.1342 5.36079V8.36855H11.1797V0.941162H13.7101C14.3515 0.941162 14.8983 1.15496 15.3458 1.5825C15.8032 2.01004 16.0318 2.53204 16.0318 3.14849C16.0318 3.77987 15.8032 4.30187 15.3458 4.72443C14.9033 5.14699 14.3565 5.35581 13.7101 5.35581H12.1342V5.36079ZM12.1342 1.85591V4.44604H13.7301C14.1079 4.44604 14.4261 4.3168 14.6746 4.06324C14.9282 3.80968 15.0574 3.50148 15.0574 3.15346C15.0574 2.81043 14.9282 2.50715 14.6746 2.25364C14.426 1.99013 14.1129 1.86089 13.7301 1.86089H12.1342V1.85591Z" fill="#383E41"/>
<path id="Letter_a_3_" d="M18.5278 3.11841C19.2338 3.11841 19.7906 3.30732 20.1982 3.68514C20.6059 4.06297 20.8097 4.57999 20.8097 5.23625V8.36828H19.8999V7.66235H19.8602C19.4674 8.24402 18.9404 8.53236 18.2842 8.53236C17.7225 8.53236 17.2551 8.36828 16.8773 8.0352C16.4995 7.70212 16.3105 7.28945 16.3105 6.79234C16.3105 6.26537 16.5094 5.84778 16.9071 5.53953C17.3049 5.22635 17.8368 5.07223 18.498 5.07223C19.0648 5.07223 19.5321 5.17663 19.895 5.3854V5.16668C19.895 4.8336 19.7658 4.55521 19.5022 4.32155C19.2387 4.0879 18.9305 3.97354 18.5775 3.97354C18.0456 3.97354 17.623 4.19724 17.3148 4.64966L16.4746 4.12269C16.937 3.45149 17.623 3.11841 18.5278 3.11841ZM17.2949 6.80722C17.2949 7.0558 17.3993 7.26462 17.6131 7.42865C17.8219 7.59273 18.0705 7.67723 18.3538 7.67723C18.7566 7.67723 19.1145 7.52808 19.4277 7.22978C19.7409 6.93149 19.9 6.58347 19.9 6.18081C19.6017 5.94716 19.1891 5.82782 18.6571 5.82782C18.2693 5.82782 17.9462 5.92228 17.6877 6.10621C17.4242 6.3001 17.2949 6.53381 17.2949 6.80722Z" fill="#383E41"/>
<path id="Letter_y_3_" d="M25.9998 3.28296L22.8181 10.601H21.8337L23.0169 8.04065L20.9189 3.28296H21.958L23.4693 6.93201H23.4892L24.9607 3.28296H25.9998Z" fill="#383E41"/>
</g>
<path id="Vector" d="M8.25786 3.85864H4.25684V5.49923L6.56111 5.49974C6.46767 6.0456 6.16688 6.51093 5.70602 6.82116V6.82146C5.70618 6.82136 5.70638 6.82126 5.70653 6.82116L5.66504 7.80172L7.07818 7.88506C7.07797 7.88521 7.07777 7.88541 7.07762 7.88557H7.07767C7.87856 7.14434 8.33744 6.0486 8.33744 4.75404C8.33739 4.4428 8.30956 4.14501 8.25786 3.85864Z" fill="#0085F7"/>
<path id="Vector_2" d="M5.70772 6.82123C5.70757 6.82134 5.70737 6.82144 5.70722 6.82154C5.32548 7.07886 4.83395 7.22938 4.25904 7.22938C3.14791 7.22938 2.20533 6.48069 1.86778 5.47148H1.86763C1.86768 5.47163 1.86773 5.47183 1.86778 5.47199L0.688046 5.28516L0.453125 6.5695C1.15418 7.96034 2.59479 8.9147 4.25909 8.9147C5.40917 8.9147 6.37542 8.53658 7.07886 7.88559C7.07906 7.88544 7.07926 7.88529 7.07942 7.88508L5.70772 6.82123Z" fill="#00A94B"/>
<path id="Vector_3" d="M1.73454 4.65716C1.73454 4.37379 1.78177 4.09987 1.86779 3.84235L1.49941 2.74463H0.452881C0.163064 3.31985 0 3.9691 0 4.65716C0 5.34522 0.163571 5.99447 0.452881 6.56969L0.453084 6.56954L1.86779 5.47197C1.86774 5.47182 1.86769 5.47167 1.86764 5.47146C1.78171 5.21415 1.73454 4.94038 1.73454 4.65716Z" fill="#FFBB00"/>
<path id="Vector_4" d="M4.2593 0.39917C2.59535 0.39917 1.15413 1.35368 0.453125 2.74473L1.86798 3.84245C2.20554 2.83324 3.14812 2.08455 4.25924 2.08455C4.88712 2.08455 5.44944 2.30083 5.89338 2.7234L7.10892 1.50888C6.37069 0.821226 5.40821 0.39917 4.2593 0.39917Z" fill="#FF4031"/>
</g>
</svg>
