<svg width="65" height="64" viewBox="0 0 65 64" fill="none" xmlns="http://www.w3.org/2000/svg">
<g clip-path="url(#clip0_357_17246)">
<path d="M10.0216 38.6865L14.9542 33.754C15.9766 32.7316 17.3358 32.1685 18.7815 32.1685C21.6449 32.1685 23.9768 34.3848 24.178 37.1856C26.8518 37.3774 28.987 39.5087 29.1794 42.187C31.8532 42.3788 33.9884 44.5101 34.1808 47.1884C35.4778 47.2815 36.6845 47.8297 37.6127 48.7588C37.8731 49.0192 39.9444 51.3012 39.9444 51.3012C40.588 51.9352 41.6307 51.9455 42.2842 51.292C42.8829 50.6933 42.9885 49.6704 42.2613 48.9198L31.6509 37.9355C31.2896 37.5615 31.1152 37.0761 31.125 36.5943C31.1436 34.9351 33.1778 34.1 34.3489 35.3125L44.9456 46.2826C45.2586 46.5908 45.6718 46.7603 46.1105 46.7603C47.5369 46.7603 48.3622 45.0276 47.2622 43.9009L36.6524 32.9171C35.9327 32.1721 35.9532 30.9846 36.6982 30.2651C37.4434 29.5452 38.6307 29.5661 39.3503 30.3109L49.9474 41.2813C50.5944 41.9183 51.6369 41.9215 52.2865 41.2715C52.8852 40.6729 52.9909 39.6499 52.2637 38.8994C39.4882 25.675 43.12 29.3972 36.168 22.3733C35.4984 21.7039 34.3983 21.7041 33.7222 22.3802L28.8243 27.2778C26.6857 29.4164 23.2056 29.4166 21.067 27.2777L18.6184 24.8292C17.886 24.0967 17.886 22.9092 18.6184 22.1768L29.9207 10.8752C28.8129 9.77117 28.5716 9.55286 28.0676 9.13924C21.3807 3.62769 11.5666 4.10407 5.43023 10.2419C-1.14337 16.8168 -1.14349 27.5172 5.43036 34.0951C7.06294 35.7276 8.58987 37.2546 10.0216 38.6865Z" fill="url(#paint0_linear_357_17246)"/>
<path d="M19.9563 38.7556C20.6063 38.1055 20.6067 37.0568 19.9563 36.4064C19.3074 35.7568 18.257 35.7567 17.6073 36.4064L12.6738 41.3399L15.0229 43.689C15.3358 43.376 20.2713 38.4405 19.9563 38.7556Z" fill="#66AA9E"/>
<path d="M24.9566 43.7568C25.6067 43.1067 25.6071 42.0581 24.9566 41.4076C24.3067 40.7571 23.2569 40.7591 22.6082 41.4072C22.4864 41.5289 17.8711 46.1442 17.6738 46.3415L20.0222 48.6912C20.3362 48.3772 25.2717 43.4417 24.9566 43.7568Z" fill="#66AA9E"/>
<path d="M29.9585 48.7584C30.6086 48.1083 30.6089 47.0596 29.9585 46.4092C29.3099 45.76 28.2598 45.7596 27.6101 46.4088C27.4883 46.5305 22.8714 51.1474 22.6741 51.3448L25.022 53.695C25.3391 53.3777 30.2736 48.4433 29.9585 48.7584Z" fill="#66AA9E"/>
<path d="M59.5697 10.242C53.4375 4.10813 43.7197 3.67176 37.0826 9.01826L22.5974 23.5032L23.7199 24.6257C24.396 25.3018 25.4962 25.3018 26.1724 24.6257L31.0703 19.728C33.209 17.5895 36.6891 17.5894 38.8276 19.7282C46.0786 27.0543 41.8476 22.7172 54.9518 36.2831C55.3753 36.7093 55.7116 37.1896 55.9638 37.7012C57.106 36.559 58.307 35.358 59.5702 34.0948C66.1434 27.5171 66.1433 16.8168 59.5697 10.242Z" fill="url(#paint1_linear_357_17246)"/>
<path d="M35.4471 52.585C35.4471 51.107 33.6521 50.3701 32.6113 51.4101C32.5968 51.4246 27.9915 56.0297 27.6738 56.3476C28.2504 56.9247 29.4388 58.1146 30.022 58.698L34.9599 53.7596C35.2742 53.4453 35.4471 53.0281 35.4471 52.585Z" fill="#66AA9E"/>
</g>
<defs>
<linearGradient id="paint0_linear_357_17246" x1="4.71555" y1="51.7794" x2="47.2395" y2="4.79213" gradientUnits="userSpaceOnUse">
<stop stop-color="#00715D"/>
<stop offset="1" stop-color="#338D7D"/>
</linearGradient>
<linearGradient id="paint1_linear_357_17246" x1="25.9767" y1="37.7012" x2="54.9326" y2="0.908322" gradientUnits="userSpaceOnUse">
<stop stop-color="#00715D"/>
<stop offset="1" stop-color="#338D7D"/>
</linearGradient>
<clipPath id="clip0_357_17246">
<rect width="64" height="64" fill="white" transform="translate(0.5)"/>
</clipPath>
</defs>
</svg>
