<svg width="32" height="32" viewBox="0 0 32 32" fill="none" xmlns="http://www.w3.org/2000/svg">
<g id="Health Icon">
<g id="Group">
<g id="Group_2">
<path id="Vector" fill-rule="evenodd" clip-rule="evenodd" d="M30.0349 4.80891V6.3378C30.0422 8.42211 29.2611 10.4321 27.8482 11.9645H24.0615C24.1684 11.4589 24.222 10.9435 24.2215 10.4267C24.2267 9.11124 23.8699 7.81972 23.1904 6.69336C24.6921 5.45895 26.58 4.79189 28.5238 4.80891H30.0349Z" fill="url(#paint0_linear_329_3095)"/>
<path id="Vector_2" fill-rule="evenodd" clip-rule="evenodd" d="M17.3236 11.9644H11.9902L12.4436 8.2044C12.7817 7.53784 13.2659 6.95615 13.8601 6.50267C14.4542 6.04919 15.143 5.73559 15.8752 5.58522C16.6074 5.43486 17.364 5.45161 18.0888 5.63423C18.8136 5.81685 19.4878 6.16062 20.0613 6.63995C20.6142 7.10472 21.0595 7.68405 21.3665 8.33786C21.6735 8.99167 21.8347 9.70436 21.8391 10.4266C21.8381 10.9492 21.7541 11.4682 21.5902 11.9644H19.7058C19.7234 11.8019 19.7234 11.638 19.7058 11.4755C19.7065 10.6276 19.4859 9.79422 19.0658 9.05773C18.7884 8.53325 18.4109 8.06819 17.9547 7.68884C17.7146 7.53116 17.4254 7.46625 17.141 7.50623C16.8566 7.54621 16.5965 7.68834 16.4093 7.90609C16.222 8.12383 16.1204 8.4023 16.1234 8.68947C16.1265 8.97665 16.234 9.25289 16.4258 9.46662C16.7072 9.71221 16.9323 10.0157 17.0857 10.3562C17.2391 10.6968 17.3172 11.0664 17.3147 11.44C17.3388 11.6138 17.3418 11.7899 17.3236 11.9644Z" fill="url(#paint1_linear_329_3095)"/>
<path id="Vector_3" fill-rule="evenodd" clip-rule="evenodd" d="M10.3818 6.14217L10.133 7.87551H8.04407C7.74707 7.90123 7.47052 8.03739 7.26903 8.25709C7.06754 8.4768 6.95576 8.76407 6.95576 9.06217C6.95576 9.36028 7.06754 9.64755 7.26903 9.86725C7.47052 10.087 7.74707 10.2231 8.04407 10.2488H9.82184L9.59073 11.9644H3.81296L2.98629 6.14217C2.93777 5.80606 2.96223 5.46344 3.05799 5.13763C3.15376 4.81182 3.31858 4.51046 3.54125 4.25405C3.76391 3.99765 4.0392 3.79221 4.34838 3.65173C4.65755 3.51125 4.99336 3.43902 5.33296 3.43995H7.99962C8.33578 3.43972 8.66813 3.51117 8.97449 3.64954C9.28085 3.78791 9.55418 3.99002 9.77626 4.24238C9.99834 4.49474 10.164 4.79155 10.2623 5.11302C10.3606 5.43448 10.3893 5.77321 10.3463 6.10662L10.3818 6.14217Z" fill="url(#paint2_linear_329_3095)"/>
<path id="Vector_4" fill-rule="evenodd" clip-rule="evenodd" d="M30.2218 15.5199V19.0754C30.2218 20.9614 29.4726 22.7701 28.139 24.1037C26.8054 25.4373 24.9967 26.1865 23.1107 26.1865C22.9547 26.1865 22.8002 26.2174 22.6562 26.2774C22.5122 26.3373 22.3815 26.4252 22.2716 26.5359C22.1617 26.6467 22.0748 26.778 22.0159 26.9225C21.957 27.067 21.9273 27.2216 21.9285 27.3776C21.9222 27.6873 21.7983 27.9829 21.5818 28.2043C21.4655 28.3202 21.3265 28.4109 21.1736 28.4705C21.0206 28.5302 20.857 28.5576 20.6929 28.551H11.2618C11.105 28.5522 10.9496 28.5222 10.8046 28.4627C10.6595 28.4033 10.5278 28.3156 10.4169 28.2047C10.3061 28.0939 10.2184 27.9621 10.1589 27.8171C10.0995 27.672 10.0695 27.5166 10.0707 27.3599C10.066 27.0486 9.93972 26.7515 9.71876 26.5322C9.4978 26.3129 9.19976 26.1888 8.88845 26.1865C7.00247 26.1865 5.19373 25.4373 3.86014 24.1037C2.52655 22.7701 1.77734 20.9614 1.77734 19.0754V15.5199C1.77967 15.207 1.90497 14.9077 2.12618 14.6865C2.34739 14.4653 2.64674 14.34 2.95957 14.3376H29.0396C29.3524 14.34 29.6517 14.4653 29.873 14.6865C30.0942 14.9077 30.2195 15.207 30.2218 15.5199Z" fill="url(#paint3_linear_329_3095)"/>
</g>
</g>
</g>
<defs>
<linearGradient id="paint0_linear_329_3095" x1="23.7424" y1="11.9645" x2="30.3095" y2="5.79331" gradientUnits="userSpaceOnUse">
<stop stop-color="#00715D"/>
<stop offset="1" stop-color="#338D7D"/>
</linearGradient>
<linearGradient id="paint1_linear_329_3095" x1="12.7845" y1="11.9644" x2="18.2949" y2="3.73703" gradientUnits="userSpaceOnUse">
<stop stop-color="#00715D"/>
<stop offset="1" stop-color="#338D7D"/>
</linearGradient>
<linearGradient id="paint2_linear_329_3095" x1="3.56041" y1="11.9644" x2="11.3036" y2="5.34282" gradientUnits="userSpaceOnUse">
<stop stop-color="#00715D"/>
<stop offset="1" stop-color="#338D7D"/>
</linearGradient>
<linearGradient id="paint3_linear_329_3095" x1="4.07125" y1="28.5519" x2="14.6344" y2="7.78476" gradientUnits="userSpaceOnUse">
<stop stop-color="#00715D"/>
<stop offset="1" stop-color="#338D7D"/>
</linearGradient>
</defs>
</svg>
