<svg width="24" height="25" viewBox="0 0 24 25" fill="none" xmlns="http://www.w3.org/2000/svg">
<g id="Frame">
<path id="Vector" d="M11.25 11.75L11.291 11.73C11.4192 11.6659 11.5631 11.64 11.7057 11.6552C11.8482 11.6703 11.9834 11.7261 12.0952 11.8157C12.2071 11.9054 12.2909 12.0252 12.3368 12.161C12.3826 12.2968 12.3886 12.4429 12.354 12.582L11.646 15.418C11.6111 15.5572 11.6169 15.7034 11.6627 15.8394C11.7084 15.9754 11.7922 16.0954 11.9041 16.1852C12.016 16.275 12.1513 16.3308 12.294 16.346C12.4367 16.3612 12.5807 16.3352 12.709 16.271L12.75 16.25M21 12.5C21 13.6819 20.7672 14.8522 20.3149 15.9442C19.8626 17.0361 19.1997 18.0282 18.364 18.864C17.5282 19.6997 16.5361 20.3626 15.4442 20.8149C14.3522 21.2672 13.1819 21.5 12 21.5C10.8181 21.5 9.64778 21.2672 8.55585 20.8149C7.46392 20.3626 6.47177 19.6997 5.63604 18.864C4.80031 18.0282 4.13738 17.0361 3.68508 15.9442C3.23279 14.8522 3 13.6819 3 12.5C3 10.1131 3.94821 7.82387 5.63604 6.13604C7.32387 4.44821 9.61305 3.5 12 3.5C14.3869 3.5 16.6761 4.44821 18.364 6.13604C20.0518 7.82387 21 10.1131 21 12.5ZM12 8.75H12.008V8.758H12V8.75Z" stroke="#98A2B3" stroke-width="1.5" stroke-linecap="round" stroke-linejoin="round"/>
</g>
</svg>
