<svg width="24" height="24" viewBox="0 0 24 24" fill="none" xmlns="http://www.w3.org/2000/svg">
<g clip-path="url(#clip0_329_15450)">
<path d="M6.08577 23.9151C4.65848 23.8502 3.88314 23.6127 3.36743 23.4115C2.6841 23.1455 2.19693 22.8288 1.68407 22.3166C1.17122 21.8045 0.853806 21.3173 0.589176 20.634C0.388029 20.1183 0.150504 19.3429 0.0855946 17.9157C0.0142658 16.3728 0 15.9099 0 12.0011C0 8.09225 0.0156923 7.63004 0.0848813 6.08577C0.14979 4.65848 0.388742 3.88457 0.588463 3.36743C0.854519 2.6841 1.17193 2.19693 1.68336 1.68336C2.1955 1.17122 2.68268 0.853092 3.36672 0.588463C3.88243 0.387315 4.65777 0.14979 6.08506 0.0848813C7.62861 0.0142658 8.09225 0 11.9996 0C15.9085 0 16.3707 0.0156923 17.9149 0.0848813C19.3422 0.14979 20.1161 0.388742 20.6333 0.588463C21.3166 0.853092 21.8038 1.17122 22.3166 1.68336C22.8295 2.1955 23.1455 2.68339 23.4115 3.36672C23.6127 3.88243 23.8502 4.65777 23.9151 6.08506C23.9857 7.62933 24 8.09154 24 12.0004C24 15.9077 23.9857 16.3714 23.9151 17.9157C23.8502 19.3429 23.6113 20.1183 23.4115 20.634C23.1455 21.3173 22.8288 21.8045 22.3166 22.3166C21.8045 22.8288 21.3166 23.1455 20.6333 23.4115C20.1176 23.6127 19.3422 23.8502 17.9149 23.9151C16.3721 23.9857 15.9085 24 11.9996 24C8.09225 24 7.62862 23.9864 6.08577 23.9151Z" fill="url(#paint0_radial_329_15450)"/>
<path d="M6.08577 23.9151C4.65848 23.8502 3.88314 23.6127 3.36743 23.4115C2.6841 23.1455 2.19693 22.8288 1.68407 22.3166C1.17122 21.8045 0.853806 21.3173 0.589176 20.634C0.388029 20.1183 0.150504 19.3429 0.0855946 17.9157C0.0142658 16.3728 0 15.9099 0 12.0011C0 8.09225 0.0156923 7.63004 0.0848813 6.08577C0.14979 4.65848 0.388742 3.88457 0.588463 3.36743C0.854519 2.6841 1.17193 2.19693 1.68336 1.68336C2.1955 1.17122 2.68268 0.853092 3.36672 0.588463C3.88243 0.387315 4.65777 0.14979 6.08506 0.0848813C7.62861 0.0142658 8.09225 0 11.9996 0C15.9085 0 16.3707 0.0156923 17.9149 0.0848813C19.3422 0.14979 20.1161 0.388742 20.6333 0.588463C21.3166 0.853092 21.8038 1.17122 22.3166 1.68336C22.8295 2.1955 23.1455 2.68339 23.4115 3.36672C23.6127 3.88243 23.8502 4.65777 23.9151 6.08506C23.9857 7.62933 24 8.09154 24 12.0004C24 15.9077 23.9857 16.3714 23.9151 17.9157C23.8502 19.3429 23.6113 20.1183 23.4115 20.634C23.1455 21.3173 22.8288 21.8045 22.3166 22.3166C21.8045 22.8288 21.3166 23.1455 20.6333 23.4115C20.1176 23.6127 19.3422 23.8502 17.9149 23.9151C16.3721 23.9857 15.9085 24 11.9996 24C8.09225 24 7.62862 23.9864 6.08577 23.9151Z" fill="url(#paint1_radial_329_15450)"/>
<path d="M9.05392 12.0489C9.05392 10.4076 10.3841 9.07664 12.0255 9.07664C13.6668 9.07664 14.9977 10.4076 14.9977 12.0489C14.9977 13.6903 13.6668 15.0212 12.0255 15.0212C10.3841 15.0212 9.05392 13.6903 9.05392 12.0489ZM7.44716 12.0489C7.44716 14.5775 9.49687 16.6272 12.0255 16.6272C14.5541 16.6272 16.6038 14.5775 16.6038 12.0489C16.6038 9.52031 14.5541 7.4706 12.0255 7.4706C9.49687 7.4706 7.44724 9.52016 7.44724 12.0489M15.7152 7.28907C15.7151 7.50068 15.7778 7.70757 15.8952 7.88356C16.0127 8.05956 16.1798 8.19676 16.3753 8.27782C16.5707 8.35888 16.7859 8.38015 16.9934 8.33895C17.201 8.29775 17.3917 8.19593 17.5414 8.04636C17.691 7.89678 17.793 7.70618 17.8344 7.49865C17.8758 7.29112 17.8547 7.07598 17.7738 6.88045C17.6929 6.68491 17.5558 6.51776 17.3799 6.40012C17.204 6.28248 16.9971 6.21965 16.7855 6.21957H16.7851C16.5015 6.2197 16.2295 6.33241 16.0288 6.53294C15.8282 6.73347 15.7154 7.00542 15.7152 7.28907ZM8.42337 19.3065C7.55409 19.2669 7.0816 19.1221 6.76762 18.9998C6.35134 18.8377 6.05433 18.6447 5.74205 18.3328C5.42977 18.021 5.23647 17.7243 5.07513 17.308C4.95273 16.9941 4.80793 16.5215 4.76841 15.6522C4.72519 14.7124 4.71656 14.4301 4.71656 12.0491C4.71656 9.66803 4.7259 9.38649 4.76841 8.44588C4.808 7.5766 4.95387 7.1049 5.07513 6.79012C5.23718 6.37385 5.4302 6.07684 5.74205 5.76456C6.0539 5.45228 6.35063 5.25898 6.76762 5.09764C7.08146 4.97524 7.55409 4.83044 8.42337 4.79092C9.3632 4.7477 9.64552 4.73907 12.0255 4.73907C14.4054 4.73907 14.688 4.74827 15.6286 4.79106C16.4979 4.83065 16.9696 4.97652 17.2844 5.09778C17.7007 5.25912 17.9977 5.45285 18.31 5.7647C18.6222 6.07655 18.8148 6.37399 18.9769 6.79027C19.0993 7.10411 19.2441 7.57674 19.2836 8.44602C19.3268 9.38664 19.3355 9.66817 19.3355 12.0492C19.3355 14.4302 19.3268 14.7118 19.2836 15.6524C19.244 16.5217 19.0985 16.9941 18.9769 17.3081C18.8148 17.7244 18.6218 18.0214 18.31 18.333C17.9981 18.6445 17.7007 18.8378 17.2844 18.9999C16.9706 19.1223 16.4979 19.2671 15.6286 19.3066C14.6888 19.3498 14.4065 19.3585 12.0255 19.3585C9.64445 19.3585 9.36291 19.3498 8.42337 19.3066M8.34955 3.18681C7.40037 3.23003 6.75178 3.38054 6.18536 3.60094C5.59911 3.82855 5.10216 4.13391 4.60592 4.62936C4.10969 5.12481 3.80512 5.62183 3.57751 6.2088C3.3571 6.77557 3.2066 7.42381 3.16337 8.37298C3.11943 9.32365 3.10938 9.62758 3.10938 12.0489C3.10938 14.4702 3.11943 14.7742 3.16337 15.7248C3.2066 16.6741 3.3571 17.3222 3.57751 17.889C3.80512 18.4753 4.10976 18.9732 4.60592 19.4685C5.10209 19.9637 5.59839 20.2686 6.18536 20.4969C6.75285 20.7173 7.40037 20.8678 8.34955 20.911C9.30071 20.9542 9.60415 20.965 12.0255 20.965C14.4468 20.965 14.7507 20.955 15.7014 20.911C16.6506 20.8678 17.2988 20.7173 17.8656 20.4969C18.4518 20.2686 18.9488 19.9639 19.445 19.4685C19.9413 18.973 20.2452 18.4753 20.4734 17.889C20.6938 17.3222 20.8451 16.674 20.8876 15.7248C20.9308 14.7735 20.9409 14.4702 20.9409 12.0489C20.9409 9.62758 20.9308 9.32365 20.8876 8.37298C20.8444 7.42374 20.6938 6.77522 20.4734 6.2088C20.2452 5.62254 19.9405 5.1256 19.445 4.62936C18.9496 4.13313 18.4518 3.82855 17.8663 3.60094C17.2988 3.38054 16.6506 3.22932 15.7021 3.18681C14.7513 3.14337 14.4475 3.13281 12.0265 3.13281C9.60557 3.13281 9.30107 3.14287 8.3499 3.18681" fill="white"/>
</g>
<defs>
<radialGradient id="paint0_radial_329_15450" cx="0" cy="0" r="1" gradientUnits="userSpaceOnUse" gradientTransform="translate(1.55326 23.4742) scale(30.4711)">
<stop offset="0.09" stop-color="#FA8F21"/>
<stop offset="0.78" stop-color="#D82D7E"/>
</radialGradient>
<radialGradient id="paint1_radial_329_15450" cx="0" cy="0" r="1" gradientUnits="userSpaceOnUse" gradientTransform="translate(16.624 22.7036) scale(26.8148)">
<stop offset="0.64" stop-color="#8C3AAA" stop-opacity="0"/>
<stop offset="1" stop-color="#8C3AAA"/>
</radialGradient>
<clipPath id="clip0_329_15450">
<rect width="24" height="24" fill="white"/>
</clipPath>
</defs>
</svg>
