<svg width="42" height="42" viewBox="0 0 42 42" fill="none" xmlns="http://www.w3.org/2000/svg">
<path d="M34.125 39.3751C35.5174 39.3751 36.8527 38.8219 37.8373 37.8374C38.8219 36.8528 39.375 35.5174 39.375 34.1251V19.8206L27.3368 26.8591L33.4355 30.1421C33.7421 30.3073 33.9704 30.5875 34.0704 30.9211C34.1703 31.2547 34.1336 31.6144 33.9684 31.9209C33.8031 32.2275 33.5229 32.4559 33.1893 32.5558C32.8557 32.6557 32.4961 32.619 32.1895 32.4538L22.2443 27.0988C21.8618 26.8929 21.4343 26.7852 21 26.7852C20.5657 26.7852 20.1382 26.8929 19.7557 27.0988L9.8105 32.4538C9.5048 32.612 9.14918 32.6438 8.82027 32.5423C8.49135 32.4408 8.21547 32.2142 8.05206 31.9113C7.88864 31.6083 7.85079 31.2533 7.94664 30.9227C8.04249 30.5921 8.26438 30.3124 8.5645 30.1438L14.6632 26.8591L2.625 19.8206V34.1251C2.625 35.5174 3.17812 36.8528 4.16269 37.8374C5.14726 38.8219 6.48261 39.3751 7.875 39.3751H34.125Z" fill="url(#paint0_linear_329_18241)"/>
<path d="M2.625 16.7807V15.4769C2.62518 14.529 2.882 13.5988 3.3682 12.7851C3.8544 11.9714 4.55184 11.3045 5.3865 10.8552L18.5115 3.78691C19.2763 3.37519 20.1314 3.15967 21 3.15967C21.8686 3.15967 22.7237 3.37519 23.4885 3.78691L36.6135 10.8552C37.4482 11.3045 38.1456 11.9714 38.6318 12.7851C39.118 13.5988 39.3748 14.529 39.375 15.4769V16.7807L24.6295 25.4012L23.4885 24.7887C22.7237 24.3769 21.8686 24.1614 21 24.1614C20.1314 24.1614 19.2763 24.3769 18.5115 24.7887L17.3705 25.4012L2.625 16.7824V16.7807Z" fill="url(#paint1_linear_329_18241)"/>
<defs>
<linearGradient id="paint0_linear_329_18241" x1="5.58871" y1="39.3751" x2="20.6477" y2="11.5703" gradientUnits="userSpaceOnUse">
<stop stop-color="#00715D"/>
<stop offset="1" stop-color="#338D7D"/>
</linearGradient>
<linearGradient id="paint1_linear_329_18241" x1="5.58871" y1="25.4012" x2="23.8539" y2="-4.24922" gradientUnits="userSpaceOnUse">
<stop stop-color="#00715D"/>
<stop offset="1" stop-color="#338D7D"/>
</linearGradient>
</defs>
</svg>
