<svg width="46" height="47" viewBox="0 0 46 47" fill="none" xmlns="http://www.w3.org/2000/svg">
<g id="Frame" clip-path="url(#clip0_388_28301)">
<g id="Group">
<path id="Vector" d="M28.8702 21.6034C28.8702 24.8452 26.2423 27.4731 23.0005 27.4731C19.7588 27.4731 17.1309 24.8452 17.1309 21.6034C17.1309 18.3617 19.7588 15.7338 23.0005 15.7338C26.2423 15.7338 28.8702 18.3617 28.8702 21.6034Z" fill="#CCE3DF"/>
<path id="Vector_2" d="M44.3368 1.70934C43.264 0.637177 41.8381 0.046875 40.3219 0.046875H5.67805C4.16194 0.046875 2.73602 0.637176 1.66246 1.71004C0.590302 2.78325 0 4.20882 0 5.72493V11.4991C0 13.0153 0.590301 14.4408 1.66316 15.5147C2.73637 16.5869 4.16194 17.1768 5.67805 17.1768H5.96584V7.26421C5.96584 6.52019 6.56912 5.91655 7.31349 5.91655H38.6869C39.4309 5.91655 40.0345 6.52019 40.0345 7.26421V17.1768H40.3219C41.8381 17.1768 43.2636 16.5865 44.3375 15.5137C45.4097 14.4408 46 13.0149 46 11.4991V5.72493C46 4.20882 45.4097 2.78325 44.3368 1.70934Z" fill="#CCE3DF"/>
<path id="Vector_3" d="M8.66016 41.8122C8.66016 42.9441 9.10095 44.0074 9.90007 44.8055C10.6995 45.606 11.7629 46.0468 12.8947 46.0468H33.104C34.2358 46.0468 35.2992 45.606 36.0972 44.8069C36.8974 44.0074 37.3382 42.9441 37.3382 41.8122V8.61182H8.66016V41.8122ZM22.9994 13.0384C27.7221 13.0384 31.5643 16.8806 31.5643 21.6034C31.5643 26.3261 27.7221 30.1684 22.9994 30.1684C18.2766 30.1684 14.4344 26.3261 14.4344 21.6034C14.4344 16.8806 18.2766 13.0384 22.9994 13.0384ZM15.782 36.1342H30.2167C30.9611 36.1342 31.5643 36.7375 31.5643 37.4818C31.5643 38.2259 30.9611 38.8295 30.2167 38.8295H15.782C15.0377 38.8295 14.4344 38.2259 14.4344 37.4818C14.4344 36.7375 15.0377 36.1342 15.782 36.1342Z" fill="white"/>
</g>
</g>
<defs>
<clipPath id="clip0_388_28301">
<rect width="46" height="46" fill="white" transform="translate(0 0.046875)"/>
</clipPath>
</defs>
</svg>
