<svg width="31" height="20" viewBox="0 0 31 20" fill="none" xmlns="http://www.w3.org/2000/svg">
<rect width="31" height="20" rx="2" fill="#016FD0"/>
<path fill-rule="evenodd" clip-rule="evenodd" d="M30.7013 14.8332V17.0066H27.8493L26.7954 15.8132L25.7 17.0066H17.5987V10.6533H14.9258L18.2669 3.33325H21.5184L22.3038 4.99325V3.33325H26.3407L27.0158 5.07325L27.6771 3.33325H30.7013V4.36658H28.366L27.3051 7.07326L27.0227 7.80658L25.6656 4.36658H23.3303V9.6999L20.9053 4.36658H19.0247L16.586 9.6999H18.1843L18.6114 8.67325H21.2843L21.7114 9.6999H23.3303H24.7356V6.22659L24.7287 5.52657L25.0043 6.22659L26.3476 9.6999H27.684L29.0342 6.22659L29.296 5.53325V9.6999H30.7013V11.7866L29.1444 13.2999L30.7013 14.8332ZM18.7284 15.9732V10.6599H23.3303V11.8133H20.1338V12.7466H23.2683V13.8933H20.1338V14.8199H23.3303V15.9732H18.7284ZM30.2743 15.9732H28.4487L26.7816 14.2399L25.1076 15.9732H23.3303L25.8998 13.3266L23.3303 10.6599H25.1627L26.816 12.3866L28.4763 10.6599H30.2743L27.6978 13.3066L30.2743 15.9732Z" fill="white"/>
<path d="M19.9478 5.50658L19.6723 6.17326L19.1004 7.5199H20.7951L20.2234 6.17326L19.9478 5.50658Z" fill="white"/>
</svg>
