<svg width="31" height="20" viewBox="0 0 31 20" fill="none" xmlns="http://www.w3.org/2000/svg">
<rect x="0.15" y="0.15" width="30.7" height="19.7" rx="1.85" fill="white"/>
<path d="M19.1488 6.09546C17.4368 6.09546 15.9069 6.95419 15.9069 8.54075C15.9069 10.3602 18.6202 10.4859 18.6202 11.4C18.6202 11.7849 18.1645 12.1294 17.386 12.1294C16.2813 12.1294 15.4556 11.648 15.4556 11.648L15.1023 13.249C15.1023 13.249 16.0535 13.6556 17.3163 13.6556C19.1881 13.6556 20.6609 12.7547 20.6609 11.141C20.6609 9.21842 17.9363 9.09649 17.9363 8.24808C17.9363 7.94659 18.3104 7.61625 19.0866 7.61625C19.9624 7.61625 20.6769 7.96636 20.6769 7.96636L21.0227 6.42004C21.0227 6.42004 20.2452 6.09546 19.1488 6.09546ZM3.48579 6.21216L3.44434 6.44557C3.44434 6.44557 4.16457 6.57313 4.81326 6.82759C5.6485 7.11938 5.708 7.28924 5.84866 7.81683L7.38152 13.5353H9.43631L12.6019 6.21216H10.5518L8.51773 11.1912L7.68771 6.97073C7.61159 6.4877 7.22602 6.21216 6.75405 6.21216H3.48579ZM13.4263 6.21216L11.818 13.5353H13.773L15.3755 6.21216H13.4263ZM24.3296 6.21216C23.8582 6.21216 23.6084 6.4564 23.4251 6.88321L20.561 13.5353H22.6111L23.0078 12.4266H25.5054L25.7465 13.5353H27.5554L25.9774 6.21216H24.3296ZM24.5962 8.19065L25.2039 10.9386H23.5759L24.5962 8.19065Z" fill="#1434CB"/>
<rect x="0.15" y="0.15" width="30.7" height="19.7" rx="1.85" stroke="#D0D5DD" stroke-width="0.3"/>
</svg>
