<svg width="31" height="20" viewBox="0 0 31 20" fill="none" xmlns="http://www.w3.org/2000/svg">
<rect x="0.15" y="0.15" width="30.7" height="19.7" rx="1.85" fill="white"/>
<path d="M31 13.3333C31 13.3333 24.106 17.936 11.4814 19.9999H31V13.3333Z" fill="#F48120"/>
<path d="M3.50534 7.72266H2.2959V11.8229H3.50534C4.14473 11.8229 4.60694 11.6738 5.01522 11.3532C5.50054 10.9656 5.78557 10.3841 5.78557 9.78023C5.77786 8.56507 4.84574 7.72266 3.50534 7.72266ZM4.47598 10.809C4.21406 11.0327 3.88281 11.137 3.34357 11.137H3.12017V8.42342H3.34357C3.87511 8.42342 4.19865 8.51288 4.47598 8.75144C4.76101 8.99746 4.93048 9.37766 4.93048 9.77277C4.93048 10.1679 4.76101 10.563 4.47598 10.809Z" fill="#231F20"/>
<path d="M6.98736 7.72266H6.16309V11.8229H6.98736V7.72266Z" fill="#231F20"/>
<path d="M9.00596 9.29548C8.51294 9.11656 8.36657 8.99728 8.36657 8.78109C8.36657 8.52016 8.62849 8.32633 8.98285 8.32633C9.22936 8.32633 9.43735 8.42325 9.64534 8.66181L10.0767 8.1176C9.72238 7.8194 9.29869 7.66284 8.82878 7.66284C8.08154 7.66284 7.50378 8.16978 7.50378 8.84073C7.50378 9.4073 7.7734 9.69805 8.54375 9.96643C8.8673 10.0782 9.02907 10.1528 9.11381 10.1975C9.27558 10.3019 9.36032 10.451 9.36032 10.6225C9.36032 10.9579 9.0907 11.2039 8.72093 11.2039C8.32805 11.2039 8.01221 11.0101 7.81962 10.6597L7.28809 11.1592C7.66556 11.7034 8.12776 11.942 8.75174 11.942C9.60683 11.942 10.2154 11.3903 10.2154 10.5926C10.2308 9.92915 9.94578 9.63095 9.00596 9.29548Z" fill="#231F20"/>
<path d="M10.4844 9.78009C10.4844 10.9878 11.4627 11.9197 12.7184 11.9197C13.0727 11.9197 13.3809 11.8526 13.7506 11.6811V10.7418C13.4194 11.0623 13.1267 11.1891 12.7569 11.1891C11.9249 11.1891 11.3318 10.6076 11.3318 9.77263C11.3318 8.9824 11.9403 8.36364 12.7184 8.36364C13.1113 8.36364 13.4117 8.49783 13.7506 8.82585V7.88652C13.3886 7.70761 13.0881 7.63306 12.7338 7.63306C11.4935 7.63306 10.4844 8.58729 10.4844 9.78009Z" fill="#231F20"/>
<path d="M20.314 10.481L19.1816 7.72266H18.2803L20.0752 11.9273H20.522L22.3477 7.72266H21.4541L20.314 10.481Z" fill="#231F20"/>
<path d="M22.7256 11.8229H25.0674V11.1296H23.5499V10.0262H25.0135V9.33293H23.5499V8.42342H25.0674V7.72266H22.7256V11.8229Z" fill="#231F20"/>
<path d="M28.3413 8.93769C28.3413 8.16982 27.7943 7.72998 26.8391 7.72998H25.6143V11.8302H26.4385V10.1827H26.5464L27.6865 11.8302H28.7033L27.3706 10.1007C27.9946 9.97392 28.3413 9.5639 28.3413 8.93769ZM26.6773 9.61609H26.4385V8.37111H26.6927C27.2089 8.37111 27.4862 8.57985 27.4862 8.98241C27.4862 9.39244 27.2089 9.61609 26.6773 9.61609Z" fill="#231F20"/>
<path d="M16.2854 11.9719C17.532 11.9719 18.5425 10.9939 18.5425 9.78758C18.5425 8.58122 17.532 7.60327 16.2854 7.60327C15.0389 7.60327 14.0283 8.58122 14.0283 9.78758C14.0283 10.9939 15.0389 11.9719 16.2854 11.9719Z" fill="#F48120"/>
<rect x="0.15" y="0.15" width="30.7" height="19.7" rx="1.85" stroke="#D0D5DD" stroke-width="0.3"/>
</svg>
