<svg width="31" height="20" viewBox="0 0 31 20" fill="none" xmlns="http://www.w3.org/2000/svg">
<rect x="0.15" y="0.15" width="30.7" height="19.7" rx="1.85" fill="white"/>
<path d="M12.8613 5.35229H18.1389V14.5292H12.8613V5.35229Z" fill="#FF5F00"/>
<path d="M13.1968 9.94067C13.1968 8.0761 14.1015 6.42231 15.4921 5.35221C14.4701 4.57396 13.18 4.10376 11.7727 4.10376C8.43862 4.10376 5.74121 6.71416 5.74121 9.94067C5.74121 13.1672 8.43862 15.7776 11.7727 15.7776C13.18 15.7776 14.4701 15.3074 15.4921 14.5291C14.1015 13.4752 13.1968 11.8052 13.1968 9.94067Z" fill="#EB001B"/>
<path d="M25.2597 9.94067C25.2597 13.1672 22.5623 15.7776 19.2282 15.7776C17.8209 15.7776 16.5308 15.3074 15.5088 14.5291C16.9161 13.459 17.8041 11.8052 17.8041 9.94067C17.8041 8.0761 16.8994 6.42231 15.5088 5.35221C16.5308 4.57396 17.8209 4.10376 19.2282 4.10376C22.5623 4.10376 25.2597 6.73037 25.2597 9.94067Z" fill="#F79E1B"/>
<rect x="0.15" y="0.15" width="30.7" height="19.7" rx="1.85" stroke="#D0D5DD" stroke-width="0.3"/>
</svg>
