<svg width="20" height="20" viewBox="0 0 20 20" fill="none" xmlns="http://www.w3.org/2000/svg">
<path fill-rule="evenodd" clip-rule="evenodd" d="M13.1252 3.75021C13.1251 3.16906 13.3276 2.60605 13.6976 2.15798C14.0677 1.7099 14.5824 1.40475 15.153 1.29499C15.7237 1.18524 16.3148 1.27773 16.8247 1.55657C17.3346 1.83541 17.7314 2.28318 17.9469 2.82288C18.1624 3.36259 18.1832 3.96052 18.0056 4.51388C17.8281 5.06724 17.4633 5.54144 16.9739 5.85497C16.4846 6.1685 15.9014 6.30176 15.3244 6.23185C14.7475 6.16193 14.213 5.89321 13.8127 5.47188L6.7952 9.37104C6.90241 9.78364 6.90241 10.2168 6.7952 10.6294L13.8127 14.5285C14.2321 14.0876 14.7979 13.8148 15.404 13.7612C16.0102 13.7076 16.615 13.8769 17.1053 14.2374C17.5955 14.5979 17.9374 15.1249 18.0669 15.7195C18.1964 16.314 18.1046 16.9354 17.8087 17.4671C17.5128 17.9989 17.0331 18.4044 16.4596 18.6078C15.8861 18.8111 15.2581 18.7983 14.6933 18.5717C14.1285 18.3451 13.6658 17.9203 13.3919 17.377C13.1179 16.8336 13.0515 16.209 13.2052 15.6202L6.1877 11.7219C5.84341 12.0844 5.39834 12.3353 4.90998 12.4423C4.42163 12.5493 3.91241 12.5074 3.44811 12.322C2.9838 12.1367 2.58573 11.8164 2.30531 11.4025C2.02489 10.9886 1.875 10.5001 1.875 10.0002C1.875 9.50027 2.02489 9.01182 2.30531 8.59793C2.58573 8.18405 2.9838 7.86374 3.44811 7.67839C3.91241 7.49303 4.42163 7.45114 4.90998 7.55812C5.39834 7.66511 5.84341 7.91605 6.1877 8.27854L13.2052 4.37938C13.1519 4.1739 13.125 3.96248 13.1252 3.75021Z" fill="#00715D"/>
</svg>
