<svg width="26" height="26" viewBox="0 0 26 26" fill="none" xmlns="http://www.w3.org/2000/svg">
<path d="M26 4.93557C25.0438 5.35923 24.0167 5.64549 22.9369 5.77488C24.0385 5.11535 24.8836 4.06871 25.282 2.82288C24.2514 3.43437 23.1098 3.87864 21.8949 4.11681C20.9216 3.08171 19.5361 2.43359 18.0017 2.43359C15.0565 2.43359 12.6679 4.8222 12.6679 7.76961C12.6681 8.17809 12.7142 8.58525 12.8053 8.98342C8.37049 8.76009 4.44173 6.63597 1.81036 3.40918C1.35238 4.19928 1.08896 5.11535 1.08896 6.09093C1.08896 7.94133 2.0314 9.57538 3.46155 10.5315C2.61452 10.5046 1.78618 10.2757 1.04546 9.86394V9.93264C1.04546 12.517 2.88331 14.6732 5.32459 15.1633C4.8665 15.2869 4.39406 15.3493 3.91958 15.3488C3.58265 15.3491 3.24644 15.3177 2.91539 15.2549C3.59441 17.3733 5.56394 18.9169 7.89874 18.9581C6.07231 20.3894 3.77189 21.2425 1.27333 21.2425C0.842782 21.2425 0.417948 21.2173 0 21.168C2.36117 22.683 5.1643 23.5647 8.17582 23.5647C17.9891 23.5647 23.3537 15.437 23.3537 8.38794C23.3537 8.15895 23.348 7.92761 23.3377 7.69862C24.3797 6.94514 25.2843 6.00734 25.9976 4.93899L26 4.93557Z" fill="#1DA1F2"/>
</svg>
