<svg width="32" height="28" viewBox="0 0 32 28" fill="none" xmlns="http://www.w3.org/2000/svg">
<path d="M4.76082 17.3433L7.22708 14.8771C7.73829 14.3659 8.41791 14.0843 9.14074 14.0843C10.5725 14.0843 11.7384 15.1925 11.839 16.5929C13.1759 16.6888 14.2435 17.7544 14.3397 19.0936C15.6766 19.1895 16.7442 20.2551 16.8404 21.5943C17.4889 21.6408 18.0923 21.9149 18.5563 22.3794C18.6866 22.5097 19.7222 23.6507 19.7222 23.6507C20.044 23.9676 20.5653 23.9728 20.8921 23.646C21.1914 23.3467 21.2443 22.8353 20.8807 22.46L15.5754 16.9678C15.3948 16.7808 15.3076 16.5381 15.3125 16.2972C15.3218 15.4676 16.3389 15.0501 16.9244 15.6563L22.2228 21.1413C22.3793 21.2954 22.5859 21.3802 22.8053 21.3802C23.5185 21.3802 23.9311 20.5139 23.3811 19.9505L18.0762 14.4586C17.7163 14.0861 17.7266 13.4924 18.0991 13.1326C18.4717 12.7727 19.0653 12.7831 19.4251 13.1555L24.7237 18.6407C25.0472 18.9592 25.5684 18.9608 25.8933 18.6358C26.1926 18.3365 26.2454 17.825 25.8818 17.4497C19.4941 10.8376 21.31 12.6987 17.834 9.18673C17.4992 8.85201 16.9491 8.85214 16.6111 9.19017L14.1622 11.639C13.0929 12.7083 11.3528 12.7083 10.2835 11.6389L9.05922 10.4146C8.69299 10.0484 8.69299 9.45468 9.05922 9.08845L14.7104 3.43767C14.1565 2.88564 14.0358 2.77649 13.7838 2.56968C10.4404 -0.186095 5.53329 0.0520974 2.46512 3.12102C-0.821684 6.40845 -0.821747 11.7586 2.46518 15.0476C3.28147 15.8639 4.04493 16.6274 4.76082 17.3433V17.3433Z" fill="white"/>
<path d="M9.72715 17.3778C10.0522 17.0528 10.0524 16.5285 9.72715 16.2033C9.40275 15.8785 8.87754 15.8784 8.55269 16.2033L6.08594 18.67L7.26046 19.8445C7.41694 19.6881 9.88469 17.2203 9.72715 17.3778V17.3778Z" fill="#CCE3DF"/>
<path d="M12.2293 19.8786C12.5543 19.5535 12.5545 19.0292 12.2293 18.704C11.9043 18.3787 11.3794 18.3797 11.0551 18.7038C10.9942 18.7646 8.68654 21.0723 8.58789 21.1709L9.7621 22.3458C9.91908 22.1888 12.3868 19.721 12.2293 19.8786V19.8786Z" fill="#CCE3DF"/>
<path d="M14.7301 22.3792C15.0551 22.0542 15.0553 21.5299 14.7301 21.2047C14.4058 20.8801 13.8807 20.8799 13.5559 21.2045C13.495 21.2653 11.1865 23.5738 11.0879 23.6725L12.2618 24.8476C12.4204 24.6889 14.8876 22.2217 14.7301 22.3792V22.3792Z" fill="#CCE3DF"/>
<path d="M29.535 3.12105C26.4689 0.0541278 21.61 -0.164059 18.2914 2.50919L11.0488 9.75167L11.61 10.3129C11.9481 10.651 12.4982 10.651 12.8363 10.3129L15.2853 7.86407C16.3546 6.79484 18.0947 6.79477 19.1639 7.86414C22.7894 11.5272 20.6739 9.35868 27.226 16.1416C27.4378 16.3547 27.6059 16.5948 27.732 16.8507C28.3031 16.2796 28.9036 15.6791 29.5352 15.0475C32.8218 11.7586 32.8218 6.40848 29.535 3.12105V3.12105Z" fill="white"/>
<path d="M17.4726 24.2926C17.4726 23.5535 16.5751 23.1851 16.0547 23.7051C16.0474 23.7123 13.7448 26.0149 13.5859 26.1738C13.8742 26.4624 14.4684 27.0573 14.76 27.3491L17.229 24.8799C17.3861 24.7227 17.4726 24.5141 17.4726 24.2926Z" fill="#CCE3DF"/>
</svg>
