<svg width="32" height="32" viewBox="0 0 32 32" fill="none" xmlns="http://www.w3.org/2000/svg">
<g id="Medical Icon">
<g id="Group">
<g id="Group_2">
<path id="Vector" d="M15.9909 4.21824C9.01587 -1.88242 0.14723 3.4778 0.00180337 10.7444C-0.0352563 12.5964 0.499328 14.4003 1.56343 16.0633H8.46066L9.68744 14.0186C10.0437 13.425 10.9057 13.4059 11.2821 13.9977L13.8705 18.0651L17.6435 10.1C17.9726 9.40497 18.9532 9.38291 19.3161 10.0569L22.5503 16.0633H30.4184C36.2468 6.95403 24.7279 -3.42336 15.9909 4.21824Z" fill="url(#paint0_linear_329_3126)"/>
<path id="Vector_2" d="M21.1651 17.4451L18.5443 12.5779L14.8382 20.4017C14.5229 21.0673 13.5956 21.1251 13.2002 20.5037L10.5148 16.2838L9.79525 17.4829C9.62582 17.7653 9.32072 17.938 8.99143 17.938H3.04639C3.23275 18.1331 2.23951 17.1418 15.3297 30.1642C15.6953 30.528 16.2863 30.5281 16.652 30.1642C29.5407 17.3422 28.7493 18.1327 28.9353 17.938H21.9904C21.6455 17.9381 21.3286 17.7487 21.1651 17.4451Z" fill="url(#paint1_linear_329_3126)"/>
</g>
</g>
</g>
<defs>
<linearGradient id="paint0_linear_329_3126" x1="2.58064" y1="18.0651" x2="15.0694" y2="-5.72724" gradientUnits="userSpaceOnUse">
<stop stop-color="#00715D"/>
<stop offset="1" stop-color="#338D7D"/>
</linearGradient>
<linearGradient id="paint1_linear_329_3126" x1="5.1342" y1="30.4371" x2="20.58" y2="8.43947" gradientUnits="userSpaceOnUse">
<stop stop-color="#00715D"/>
<stop offset="1" stop-color="#338D7D"/>
</linearGradient>
</defs>
</svg>
