<svg width="180" height="172" viewBox="0 0 180 172" fill="none" xmlns="http://www.w3.org/2000/svg">
<path d="M13.8005 78.2596C21.4208 68.8137 30.7974 59.7799 40.4325 52.4065C43.3991 50.1362 48.1894 54.4792 51.1965 55.6783C61.2539 59.6889 72.0508 62.9565 82.7395 64.7018C86.236 65.2727 89.6085 66.2476 92.1106 63.5411C99.5558 55.4876 110.633 49.7789 116.711 40.6494C118.034 38.6617 120.344 37.1518 122.635 37.2596" stroke="#99C6BE" stroke-width="10" stroke-linecap="round"/>
<path d="M41.4951 91.091C51.8462 89.8264 65.3575 85.9619 75.9176 87.7891C78.6024 88.2536 81.176 89.38 83.9447 89.8259C88.7944 90.6071 102.26 96.3293 106.563 91.7627C114.875 82.9396 121.112 71.7826 128.899 62.5342C131.368 59.6017 134.536 60.7585 137.787 60.5064" stroke="#99C6BE" stroke-width="10" stroke-linecap="round"/>
<path d="M33.7702 121.647C38.935 116.393 51.2912 118.816 57.2827 120.656C64.5471 122.887 71.9323 128.183 79.7683 127.885C83.5656 127.741 88.241 124.11 91.5978 122.735C102.777 118.154 113.763 113.185 124.903 108.521C137.418 103.282 150.01 99.9353 163.232 98.9102" stroke="#99C6BE" stroke-width="10" stroke-linecap="round"/>
</svg>
