<svg width="18" height="18" viewBox="0 0 18 18" fill="none" xmlns="http://www.w3.org/2000/svg">
<path fill-rule="evenodd" clip-rule="evenodd" d="M9.1875 6.375C8.46375 6.375 7.875 6.96375 7.875 7.68825C7.875 8.412 8.46375 9 9.1875 9C9.91125 9 10.5 8.412 10.5 7.68825C10.5 6.96375 9.91125 6.375 9.1875 6.375ZM9.1875 10.125C7.8435 10.125 6.75 9.03225 6.75 7.68825C6.75 6.3435 7.8435 5.25 9.1875 5.25C10.5315 5.25 11.625 6.3435 11.625 7.68825C11.625 9.03225 10.5315 10.125 9.1875 10.125Z" fill="#344054"/>
<mask id="mask0_388_28765" style="mask-type:luminance" maskUnits="userSpaceOnUse" x="3" y="1" width="13" height="16">
<path fill-rule="evenodd" clip-rule="evenodd" d="M3 1.5H15.3746V16.125H3V1.5Z" fill="white"/>
</mask>
<g mask="url(#mask0_388_28765)">
<path fill-rule="evenodd" clip-rule="evenodd" d="M9.1875 2.625C6.396 2.625 4.125 4.91775 4.125 7.73475C4.125 11.319 8.343 14.811 9.1875 14.997C10.032 14.8103 14.25 11.3182 14.25 7.73475C14.25 4.91775 11.979 2.625 9.1875 2.625ZM9.1875 16.125C7.842 16.125 3 11.961 3 7.73475C3 4.29675 5.77575 1.5 9.1875 1.5C12.5992 1.5 15.375 4.29675 15.375 7.73475C15.375 11.961 10.533 16.125 9.1875 16.125Z" fill="#344054"/>
</g>
</svg>
