<svg width="36" height="36" viewBox="0 0 36 36" fill="none" xmlns="http://www.w3.org/2000/svg">
<g clip-path="url(#clip0_329_18221)">
<path d="M24.3647 16.1455C22.677 14.4575 20.3878 13.5092 18.0008 13.509C15.6138 13.5089 13.3245 14.457 11.6365 16.1448C9.94851 17.8325 9.00014 20.1217 9 22.5087C8.99986 24.8957 9.94796 27.185 11.6357 28.873L16.8962 34.018C17.1913 34.3064 17.5876 34.4679 18.0002 34.4679C18.4129 34.4679 18.8091 34.3064 19.1042 34.018L24.3647 28.873C26.0524 27.1852 27.0006 24.8961 27.0006 22.5093C27.0006 20.1224 26.0524 17.8333 24.3647 16.1455ZM18.0002 25.4905C17.4069 25.4905 16.8269 25.3146 16.3335 24.9849C15.8402 24.6553 15.4557 24.1867 15.2286 23.6386C15.0015 23.0904 14.9421 22.4872 15.0579 21.9052C15.1736 21.3233 15.4594 20.7888 15.8789 20.3692C16.2985 19.9496 16.833 19.6639 17.415 19.5482C17.9969 19.4324 18.6001 19.4918 19.1483 19.7189C19.6965 19.9459 20.165 20.3305 20.4946 20.8238C20.8243 21.3172 21.0002 21.8972 21.0002 22.4905C21.0002 23.2862 20.6842 24.0492 20.1216 24.6118C19.5589 25.1744 18.7959 25.4905 18.0002 25.4905Z" fill="url(#paint0_linear_329_18221)"/>
<path d="M32.7 8.36871L22.2 1.28271C20.9612 0.4407 19.4979 -0.00952148 18 -0.00952148C16.5021 -0.00952148 15.0388 0.4407 13.8 1.28271L3.30001 8.36871C2.28258 9.05531 1.4495 9.98145 0.874062 11.0656C0.298624 12.1498 -0.00153144 13.3588 5.87561e-06 14.5862V28.5002C0.00238766 30.4886 0.793329 32.3949 2.19934 33.8009C3.60534 35.2069 5.51161 35.9978 7.50001 36.0002H14.631L9.53851 31.0187C8.41186 29.9084 7.51586 28.5862 6.90205 27.1283C6.28823 25.6705 5.96871 24.1056 5.96186 22.5238C5.95502 20.942 6.26098 19.3744 6.86216 17.9112C7.46334 16.4481 8.34786 15.1183 9.46485 13.9982C10.5818 12.8781 11.9093 11.99 13.3708 11.3848C14.8322 10.7796 16.399 10.4694 17.9808 10.4719C19.5626 10.4744 21.1284 10.7896 22.5879 11.3994C24.0475 12.0092 25.3721 12.9016 26.4855 14.0252C28.7356 16.2756 29.9997 19.3276 29.9997 22.51C29.9997 25.6923 28.7356 28.7443 26.4855 30.9947L21.3675 36.0002H28.5C30.4884 35.9978 32.3947 35.2069 33.8007 33.8009C35.2067 32.3949 35.9976 30.4886 36 28.5002V14.5862C36.0006 13.359 35.7001 12.1503 35.1247 11.0663C34.5494 9.98225 33.7168 9.05598 32.7 8.36871Z" fill="url(#paint1_linear_329_18221)"/>
</g>
<defs>
<linearGradient id="paint0_linear_329_18221" x1="10.4517" y1="34.4679" x2="29.4486" y2="18.4386" gradientUnits="userSpaceOnUse">
<stop stop-color="#00715D"/>
<stop offset="1" stop-color="#338D7D"/>
</linearGradient>
<linearGradient id="paint1_linear_329_18221" x1="2.90323" y1="36.0002" x2="36.0088" y2="3.48424" gradientUnits="userSpaceOnUse">
<stop stop-color="#00715D"/>
<stop offset="1" stop-color="#338D7D"/>
</linearGradient>
<clipPath id="clip0_329_18221">
<rect width="36" height="36" fill="white"/>
</clipPath>
</defs>
</svg>
