<svg width="36" height="36" viewBox="0 0 36 36" fill="none" xmlns="http://www.w3.org/2000/svg">
<path d="M34.4978 16.499C34.0994 16.499 33.7173 16.341 33.4356 16.0598C33.1539 15.7786 32.9956 15.3971 32.9956 14.9994C32.9925 11.8184 31.7253 8.7687 29.4723 6.51944C27.2193 4.27019 24.1644 3.00516 20.9782 3.00198C20.5798 3.00198 20.1977 2.84398 19.916 2.56274C19.6343 2.2815 19.476 1.90005 19.476 1.50231C19.476 1.10457 19.6343 0.723126 19.916 0.441883C20.1977 0.16064 20.5798 0.00263892 20.9782 0.00263892C24.9609 0.00700537 28.7792 1.58842 31.5954 4.3999C34.4116 7.21139 35.9956 11.0233 36 14.9994C36 15.3971 35.8417 15.7786 35.56 16.0598C35.2783 16.341 34.8962 16.499 34.4978 16.499ZM29.9913 14.9994C29.9913 12.6129 29.0417 10.3243 27.3514 8.63679C25.6611 6.94934 23.3686 6.00133 20.9782 6.00133C20.5798 6.00133 20.1977 6.15933 19.916 6.44057C19.6343 6.72182 19.476 7.10327 19.476 7.501C19.476 7.89874 19.6343 8.28019 19.916 8.56143C20.1977 8.84268 20.5798 9.00068 20.9782 9.00068C22.5718 9.00068 24.1001 9.63268 25.227 10.7577C26.3538 11.8826 26.9869 13.4084 26.9869 14.9994C26.9869 15.3971 27.1452 15.7786 27.4269 16.0598C27.7086 16.341 28.0907 16.499 28.4891 16.499C28.8875 16.499 29.2696 16.341 29.5513 16.0598C29.833 15.7786 29.9913 15.3971 29.9913 14.9994ZM33.2705 33.2414L34.6375 31.6682C35.5076 30.7968 35.9962 29.6166 35.9962 28.3862C35.9962 27.1558 35.5076 25.9756 34.6375 25.1042C34.591 25.0577 30.9767 22.2818 30.9767 22.2818C30.1093 21.4575 28.9571 20.9984 27.7595 21.0001C26.5619 21.0018 25.411 21.464 24.5459 22.2908L21.6827 24.6993C19.3456 23.7336 17.2226 22.3165 15.4356 20.5294C13.6486 18.7423 12.2328 16.6204 11.2696 14.2855L13.6731 11.4361C14.5018 10.5726 14.9654 9.4234 14.9674 8.22745C14.9693 7.0315 14.5095 5.8808 13.6836 5.01455C13.6836 5.01455 10.9 1.41083 10.8535 1.36434C9.99641 0.503152 8.83436 0.0131696 7.61842 0.000261616C6.40247 -0.0126464 5.23025 0.452556 4.35504 1.29536L2.62753 2.79503C-7.5783 14.6155 14.3986 36.3862 26.6294 35.9948C27.8645 36.0019 29.0884 35.762 30.2291 35.2891C31.3697 34.8162 32.4039 34.1199 33.2705 33.2414Z" fill="url(#paint0_linear_329_18230)"/>
<defs>
<linearGradient id="paint0_linear_329_18230" x1="2.90323" y1="36" x2="36" y2="3.48387" gradientUnits="userSpaceOnUse">
<stop stop-color="#00715D"/>
<stop offset="1" stop-color="#338D7D"/>
</linearGradient>
</defs>
</svg>
