<svg width="32" height="32" viewBox="0 0 32 32" fill="none" xmlns="http://www.w3.org/2000/svg">
<g id="Water">
<g id="Group">
<path id="Vector" d="M26.306 13.9654L25.6004 12.4268L24.8948 13.9644C24.841 14.08 24.7481 14.173 24.6324 14.2268L23.0938 14.9334L24.6313 15.639C24.747 15.6928 24.84 15.7857 24.8938 15.9014L25.6004 17.4401L26.306 15.9025C26.3598 15.7868 26.4527 15.6939 26.5684 15.6401L28.1071 14.9334L26.5695 14.2278C26.4534 14.1742 26.3601 14.0813 26.306 13.9654Z" fill="url(#paint0_linear_329_3082)"/>
<path id="Vector_2" d="M5.76639 22.0293L3.79785 22.9333L5.76639 23.8399C5.88246 23.8936 5.97566 23.9868 6.02932 24.1029L6.93332 26.0687L7.83998 24.1002C7.89364 23.9841 7.98684 23.8909 8.10292 23.8373L10.0688 22.9333L8.10025 22.0266C7.98432 21.973 7.89115 21.88 7.83732 21.7642L6.91892 19.7637L6.02932 21.7642C5.976 21.881 5.88277 21.975 5.76639 22.0293Z" fill="url(#paint1_linear_329_3082)"/>
<path id="Vector_3" d="M22.4207 14.0688L23.9674 13.3594C23.3541 12.3685 22.6927 11.3914 21.9887 10.3626C20.1311 7.65063 18.2149 4.85329 17.0581 1.40796C15.9007 4.85223 13.9866 7.64796 12.1327 10.3594C10.1797 13.2138 8.3354 15.9168 7.69434 19.0074C7.76204 19.0834 7.81812 19.1689 7.86074 19.2613L8.7242 21.1424L10.6053 22.0058C10.7827 22.0874 10.933 22.2181 11.0383 22.3825C11.1436 22.5469 11.1996 22.738 11.1996 22.9333C11.1996 23.1285 11.1436 23.3197 11.0383 23.4841C10.933 23.6485 10.7827 23.7792 10.6053 23.8608L8.7242 24.7242L8.4266 25.368C9.34237 27.3467 10.9069 28.9531 12.8608 29.9208C14.8148 30.8885 17.0407 31.1593 19.1697 30.6884C21.2987 30.2174 23.2027 29.0331 24.5663 27.3316C25.9298 25.6301 26.6708 23.5137 26.6666 21.3333C26.6635 20.3365 26.5308 19.3444 26.2719 18.3818C26.1648 18.492 26.0325 18.5743 25.8863 18.6217C25.7402 18.6691 25.5847 18.6802 25.4333 18.6539C25.2819 18.6277 25.1393 18.5649 25.0176 18.471C24.896 18.3771 24.7991 18.255 24.7354 18.1152L24.0074 16.5285L22.4207 15.8005C22.2554 15.7245 22.1152 15.6026 22.017 15.4494C21.9188 15.2962 21.8666 15.118 21.8666 14.936C21.8666 14.7539 21.9188 14.5758 22.017 14.4225C22.1152 14.2693 22.2554 14.1474 22.4207 14.0714V14.0688ZM24.4671 22.329C24.4879 22.1905 24.5622 22.0657 24.6742 21.9816C24.7862 21.8975 24.9267 21.8608 25.0655 21.8794C25.2043 21.898 25.3302 21.9705 25.4161 22.0812C25.5019 22.1918 25.5407 22.3318 25.5242 22.4709C25.2718 24.3231 24.4194 26.0417 23.0975 27.3635C21.7756 28.6853 20.057 29.5375 18.2047 29.7898C18.1809 29.793 18.1568 29.7946 18.1327 29.7946C17.9975 29.7945 17.8674 29.743 17.7687 29.6506C17.67 29.5582 17.6101 29.4318 17.601 29.2968C17.592 29.1619 17.6346 29.0286 17.7201 28.9239C17.8057 28.8192 17.9278 28.7509 18.0618 28.7328C19.6827 28.5123 21.1867 27.7668 22.3435 26.6102C23.5003 25.4537 24.2463 23.9499 24.4671 22.329Z" fill="url(#paint2_linear_329_3082)"/>
</g>
</g>
<defs>
<linearGradient id="paint0_linear_329_3082" x1="23.4981" y1="17.4401" x2="28.1071" y2="12.9119" gradientUnits="userSpaceOnUse">
<stop stop-color="#00715D"/>
<stop offset="1" stop-color="#338D7D"/>
</linearGradient>
<linearGradient id="paint1_linear_329_3082" x1="4.30357" y1="26.0687" x2="10.0995" y2="20.4053" gradientUnits="userSpaceOnUse">
<stop stop-color="#00715D"/>
<stop offset="1" stop-color="#338D7D"/>
</linearGradient>
<linearGradient id="paint2_linear_329_3082" x1="9.22436" y1="30.914" x2="33.7249" y2="15.4367" gradientUnits="userSpaceOnUse">
<stop stop-color="#00715D"/>
<stop offset="1" stop-color="#338D7D"/>
</linearGradient>
</defs>
</svg>
